Rubik-LightItalic.ufo
<glyph name="numbersign" format="2">
  <advance width="701"/>
  <unicode hex="0023"/>
  <guideline x="-150" y="474" angle="0"/>
  <guideline x="-150" y="220" angle="0"/>
  <guideline x="332"/>
  <guideline x="105"/>
  <outline>
    <contour>
      <point x="145" y="39" type="curve"/>
      <point x="163" y="39" type="line"/>
      <point x="176" y="39"/>
      <point x="185" y="48"/>
      <point x="190" y="60" type="curve"/>
      <point x="237" y="191" type="line"/>
      <point x="404" y="191" type="line"/>
      <point x="356" y="60" type="line"/>
      <point x="351" y="48"/>
      <point x="360" y="39"/>
      <point x="372" y="39" type="curve"/>
      <point x="390" y="39" type="line"/>
      <point x="403" y="39"/>
      <point x="412" y="48"/>
      <point x="417" y="60" type="curve"/>
      <point x="464" y="191" type="line"/>
      <point x="593" y="191" type="line"/>
      <point x="606" y="191"/>
      <point x="617" y="200"/>
      <point x="619" y="213" type="curve"/>
      <point x="622" y="227" type="line"/>
      <point x="625" y="240"/>
      <point x="618" y="249"/>
      <point x="605" y="249" type="curve"/>
      <point x="485" y="249" type="line"/>
      <point x="556" y="445" type="line"/>
      <point x="673" y="445" type="line"/>
      <point x="686" y="445"/>
      <point x="697" y="454"/>
      <point x="699" y="467" type="curve"/>
      <point x="702" y="481" type="line"/>
      <point x="705" y="494"/>
      <point x="698" y="503"/>
      <point x="685" y="503" type="curve"/>
      <point x="576" y="503" type="line"/>
      <point x="624" y="634" type="line"/>
      <point x="628" y="646"/>
      <point x="620" y="655"/>
      <point x="608" y="655" type="curve"/>
      <point x="590" y="655" type="line"/>
      <point x="577" y="655"/>
      <point x="568" y="645"/>
      <point x="564" y="634" type="curve"/>
      <point x="516" y="503" type="line"/>
      <point x="349" y="503" type="line"/>
      <point x="397" y="634" type="line"/>
      <point x="401" y="646"/>
      <point x="393" y="655"/>
      <point x="381" y="655" type="curve"/>
      <point x="363" y="655" type="line"/>
      <point x="350" y="655"/>
      <point x="341" y="645"/>
      <point x="337" y="634" type="curve"/>
      <point x="289" y="503" type="line"/>
      <point x="158" y="503" type="line"/>
      <point x="145" y="503"/>
      <point x="134" y="494"/>
      <point x="131" y="481" type="curve"/>
      <point x="128" y="467" type="line"/>
      <point x="126" y="454"/>
      <point x="133" y="445"/>
      <point x="146" y="445" type="curve"/>
      <point x="268" y="445" type="line"/>
      <point x="197" y="249" type="line"/>
      <point x="78" y="249" type="line"/>
      <point x="65" y="249"/>
      <point x="54" y="240"/>
      <point x="51" y="227" type="curve"/>
      <point x="48" y="213" type="line"/>
      <point x="46" y="200"/>
      <point x="53" y="191"/>
      <point x="66" y="191" type="curve"/>
      <point x="177" y="191" type="line"/>
      <point x="129" y="60" type="line"/>
      <point x="124" y="48"/>
      <point x="133" y="39"/>
    </contour>
    <contour>
      <point x="258" y="249" type="line"/>
      <point x="329" y="445" type="line"/>
      <point x="495" y="445" type="line"/>
      <point x="424" y="249" type="line"/>
    </contour>
  </outline>
</glyph>
<glyph name="e" format="2">
  <advance width="544"/>
  <unicode hex="0065"/>
  <outline>
    <contour>
      <point x="223" y="-10" type="curve" smooth="yes"/>
      <point x="349" y="-10"/>
      <point x="445" y="73"/>
      <point x="455" y="111" type="curve" smooth="yes"/>
      <point x="458" y="123"/>
      <point x="450" y="131"/>
      <point x="438" y="131" type="curve" smooth="yes"/>
      <point x="422" y="131" type="line" smooth="yes"/>
      <point x="407" y="131"/>
      <point x="404" y="130"/>
      <point x="388" y="113" type="curve" smooth="yes"/>
      <point x="374" y="97"/>
      <point x="320" y="48"/>
      <point x="235" y="48" type="curve" smooth="yes"/>
      <point x="138" y="48"/>
      <point x="100" y="134"/>
      <point x="115" y="225" type="curve" smooth="yes"/>
      <point x="116" y="228"/>
      <point x="117" y="235"/>
      <point x="117" y="235" type="curve"/>
      <point x="473" y="235" type="line" smooth="yes"/>
      <point x="486" y="235"/>
      <point x="498" y="244"/>
      <point x="501" y="257" type="curve" smooth="yes"/>
      <point x="504" y="272" type="line" smooth="yes"/>
      <point x="538" y="432"/>
      <point x="477" y="530"/>
      <point x="338" y="530" type="curve" smooth="yes"/>
      <point x="208" y="530"/>
      <point x="109" y="436"/>
      <point x="70" y="300" type="curve" smooth="yes"/>
      <point x="65" y="280"/>
      <point x="56" y="240"/>
      <point x="53" y="220" type="curve" smooth="yes"/>
      <point x="34" y="83"/>
      <point x="94" y="-10"/>
    </contour>
    <contour>
      <point x="129" y="291" type="line"/>
      <point x="130" y="295" type="line" smooth="yes"/>
      <point x="151" y="395"/>
      <point x="226" y="472"/>
      <point x="326" y="472" type="curve" smooth="yes"/>
      <point x="426" y="472"/>
      <point x="469" y="395"/>
      <point x="448" y="295" type="curve" smooth="yes"/>
      <point x="447" y="291" type="line"/>
    </contour>
  </outline>
</glyph>
<glyph name="section" format="2">
  <advance width="553"/>
  <unicode hex="00A7"/>
  <guideline x="-150" y="-140" angle="0"/>
  <guideline x="-150" y="710" angle="0"/>
  <guideline x="141"/>
  <guideline x="-78"/>
  <guideline x="1126"/>
  <guideline x="361"/>
  <outline>
    <contour>
      <point x="193" y="-140" type="curve" smooth="yes"/>
      <point x="316" y="-140"/>
      <point x="394" y="-56"/>
      <point x="411" y="22" type="curve" smooth="yes"/>
      <point x="418" y="57"/>
      <point x="418" y="86"/>
      <point x="404" y="110" type="curve"/>
      <point x="453" y="142"/>
      <point x="497" y="183"/>
      <point x="509" y="240" type="curve" smooth="yes"/>
      <point x="532" y="346"/>
      <point x="482" y="392"/>
      <point x="341" y="438" type="curve" smooth="yes"/>
      <point x="239" y="471"/>
      <point x="214" y="486"/>
      <point x="227" y="548" type="curve" smooth="yes"/>
      <point x="239" y="605"/>
      <point x="287" y="652"/>
      <point x="371" y="652" type="curve" smooth="yes"/>
      <point x="466" y="652"/>
      <point x="482" y="612"/>
      <point x="488" y="576" type="curve" smooth="yes"/>
      <point x="490" y="560"/>
      <point x="496" y="556"/>
      <point x="507" y="556" type="curve" smooth="yes"/>
      <point x="525" y="556" type="line" smooth="yes"/>
      <point x="538" y="556"/>
      <point x="549" y="564"/>
      <point x="551" y="576" type="curve" smooth="yes"/>
      <point x="560" y="633"/>
      <point x="520" y="710"/>
      <point x="383" y="710" type="curve" smooth="yes"/>
      <point x="260" y="710"/>
      <point x="182" y="626"/>
      <point x="166" y="548" type="curve" smooth="yes"/>
      <point x="158" y="513"/>
      <point x="158" y="484"/>
      <point x="173" y="460" type="curve"/>
      <point x="123" y="428"/>
      <point x="79" y="387"/>
      <point x="67" y="330" type="curve" smooth="yes"/>
      <point x="45" y="224"/>
      <point x="95" y="178"/>
      <point x="235" y="132" type="curve" smooth="yes"/>
      <point x="337" y="99"/>
      <point x="363" y="84"/>
      <point x="350" y="22" type="curve" smooth="yes"/>
      <point x="338" y="-35"/>
      <point x="290" y="-82"/>
      <point x="206" y="-82" type="curve" smooth="yes"/>
      <point x="111" y="-82"/>
      <point x="94" y="-42"/>
      <point x="89" y="-6" type="curve" smooth="yes"/>
      <point x="86" y="10"/>
      <point x="80" y="14"/>
      <point x="69" y="14" type="curve" smooth="yes"/>
      <point x="51" y="14" type="line" smooth="yes"/>
      <point x="38" y="14"/>
      <point x="27" y="6"/>
      <point x="26" y="-6" type="curve" smooth="yes"/>
      <point x="17" y="-63"/>
      <point x="56" y="-140"/>
    </contour>
    <contour>
      <point x="364" y="147" type="curve"/>
      <point x="342" y="161"/>
      <point x="312" y="174"/>
      <point x="272" y="187" type="curve" smooth="yes"/>
      <point x="134" y="231"/>
      <point x="115" y="269"/>
      <point x="128" y="329" type="curve" smooth="yes"/>
      <point x="137" y="372"/>
      <point x="165" y="396"/>
      <point x="212" y="423" type="curve"/>
      <point x="234" y="409"/>
      <point x="264" y="396"/>
      <point x="305" y="383" type="curve" smooth="yes"/>
      <point x="442" y="339"/>
      <point x="461" y="301"/>
      <point x="448" y="241" type="curve" smooth="yes"/>
      <point x="439" y="198"/>
      <point x="411" y="174"/>
    </contour>
  </outline>
</glyph>
<glyph name="guillemetleft" format="2">
  <advance width="603"/>
  <unicode hex="00AB"/>
  <guideline x="139"/>
  <outline>
    <contour>
      <point x="496" y="92" type="curve" smooth="yes"/>
      <point x="508" y="92"/>
      <point x="517" y="100"/>
      <point x="520" y="112" type="curve" smooth="yes"/>
      <point x="524" y="129" type="line" smooth="yes"/>
      <point x="527" y="145"/>
      <point x="524" y="152"/>
      <point x="513" y="165" type="curve" smooth="yes"/>
      <point x="379" y="329" type="line"/>
      <point x="583" y="493" type="line"/>
      <point x="599" y="506"/>
      <point x="605" y="513"/>
      <point x="609" y="529" type="curve" smooth="yes"/>
      <point x="612" y="546" type="line" smooth="yes"/>
      <point x="615" y="558"/>
      <point x="609" y="566"/>
      <point x="597" y="566" type="curve" smooth="yes"/>
      <point x="589" y="566"/>
      <point x="579" y="561"/>
      <point x="570" y="554" type="curve" smooth="yes"/>
      <point x="343" y="372" type="line" smooth="yes"/>
      <point x="328" y="359"/>
      <point x="322" y="348"/>
      <point x="319" y="337" type="curve"/>
      <point x="315" y="321" type="line"/>
      <point x="314" y="310"/>
      <point x="315" y="299"/>
      <point x="325" y="286" type="curve" smooth="yes"/>
      <point x="474" y="104" type="line" smooth="yes"/>
      <point x="481" y="97"/>
      <point x="488" y="92"/>
    </contour>
    <contour>
      <point x="247" y="92" type="curve" smooth="yes"/>
      <point x="259" y="92"/>
      <point x="268" y="100"/>
      <point x="271" y="112" type="curve" smooth="yes"/>
      <point x="275" y="129" type="line" smooth="yes"/>
      <point x="278" y="145"/>
      <point x="275" y="152"/>
      <point x="264" y="165" type="curve" smooth="yes"/>
      <point x="130" y="329" type="line"/>
      <point x="334" y="493" type="line"/>
      <point x="350" y="506"/>
      <point x="356" y="513"/>
      <point x="360" y="529" type="curve" smooth="yes"/>
      <point x="363" y="546" type="line" smooth="yes"/>
      <point x="366" y="558"/>
      <point x="360" y="566"/>
      <point x="348" y="566" type="curve" smooth="yes"/>
      <point x="340" y="566"/>
      <point x="330" y="561"/>
      <point x="321" y="554" type="curve" smooth="yes"/>
      <point x="94" y="372" type="line" smooth="yes"/>
      <point x="79" y="359"/>
      <point x="73" y="348"/>
      <point x="70" y="337" type="curve"/>
      <point x="66" y="321" type="line"/>
      <point x="65" y="310"/>
      <point x="66" y="299"/>
      <point x="76" y="286" type="curve" smooth="yes"/>
      <point x="225" y="104" type="line" smooth="yes"/>
      <point x="232" y="97"/>
      <point x="239" y="92"/>
    </contour>
  </outline>
</glyph>
<glyph name="questiondown" format="2">
  <advance width="496"/>
  <unicode hex="00BF"/>
  <outline>
    <contour>
      <point x="433" y="377" type="curve"/>
      <point x="416" y="377" type="line" smooth="yes"/>
      <point x="403" y="377"/>
      <point x="392" y="368"/>
      <point x="390" y="355" type="curve" smooth="yes"/>
      <point x="386" y="339"/>
      <point x="383" y="323"/>
      <point x="380" y="307" type="curve" smooth="yes"/>
      <point x="354" y="186"/>
      <point x="175" y="137"/>
      <point x="136" y="-3" type="curve" smooth="yes"/>
      <point x="109" y="-97"/>
      <point x="158" y="-190"/>
      <point x="305" y="-190" type="curve" smooth="yes"/>
      <point x="432" y="-190"/>
      <point x="541" y="-102"/>
      <point x="567" y="9" type="curve" smooth="yes"/>
      <point x="570" y="21"/>
      <point x="562" y="29"/>
      <point x="550" y="29" type="curve" smooth="yes"/>
      <point x="534" y="29" type="line" smooth="yes"/>
      <point x="524" y="29"/>
      <point x="513" y="25"/>
      <point x="506" y="7" type="curve" smooth="yes"/>
      <point x="467" y="-95"/>
      <point x="395" y="-132"/>
      <point x="317" y="-132" type="curve" smooth="yes"/>
      <point x="239" y="-132"/>
      <point x="169" y="-85"/>
      <point x="197" y="-2" type="curve" smooth="yes"/>
      <point x="232" y="103"/>
      <point x="408" y="154"/>
      <point x="441" y="307" type="curve" smooth="yes"/>
      <point x="444" y="323"/>
      <point x="447" y="339"/>
      <point x="451" y="355" type="curve" smooth="yes"/>
      <point x="453" y="368"/>
      <point x="446" y="377"/>
    </contour>
    <contour>
      <point x="476" y="520" type="curve" smooth="yes"/>
      <point x="438" y="520" type="line" smooth="yes"/>
      <point x="425" y="520"/>
      <point x="413" y="511"/>
      <point x="410" y="498" type="curve" smooth="yes"/>
      <point x="402" y="460" type="line" smooth="yes"/>
      <point x="399" y="447"/>
      <point x="407" y="437"/>
      <point x="420" y="437" type="curve" smooth="yes"/>
      <point x="458" y="437" type="line" smooth="yes"/>
      <point x="471" y="437"/>
      <point x="482" y="447"/>
      <point x="485" y="460" type="curve" smooth="yes"/>
      <point x="493" y="498" type="line" smooth="yes"/>
      <point x="496" y="511"/>
      <point x="489" y="520"/>
    </contour>
  </outline>
</glyph>
<glyph name="Hbar" format="2">
  <advance width="710"/>
  <unicode hex="0126"/>
  <outline>
    <contour>
      <point x="87" y="511" type="curve" smooth="yes"/>
      <point x="714" y="511" type="line" smooth="yes"/>
      <point x="728" y="511"/>
      <point x="739" y="520"/>
      <point x="742" y="533" type="curve" smooth="yes"/>
      <point x="745" y="548" type="line" smooth="yes"/>
      <point x="748" y="562"/>
      <point x="741" y="571"/>
      <point x="727" y="571" type="curve" smooth="yes"/>
      <point x="100" y="571" type="line" smooth="yes"/>
      <point x="87" y="571"/>
      <point x="76" y="562"/>
      <point x="73" y="548" type="curve" smooth="yes"/>
      <point x="70" y="533" type="line" smooth="yes"/>
      <point x="67" y="520"/>
      <point x="74" y="511"/>
    </contour>
    <component base="H"/>
  </outline>
</glyph>
<glyph name="ldot" format="2">
  <advance width="256"/>
  <unicode hex="0140"/>
  <outline>
    <contour>
      <point x="218" y="313" type="curve"/>
      <point x="266" y="313" type="line" smooth="yes"/>
      <point x="279" y="313"/>
      <point x="290" y="322"/>
      <point x="293" y="335" type="curve"/>
      <point x="304" y="383" type="line"/>
      <point x="307" y="396"/>
      <point x="298" y="406"/>
      <point x="285" y="406" type="curve" smooth="yes"/>
      <point x="237" y="406" type="line" smooth="yes"/>
      <point x="224" y="406"/>
      <point x="214" y="396"/>
      <point x="211" y="383" type="curve" smooth="yes"/>
      <point x="200" y="335" type="line" smooth="yes"/>
      <point x="197" y="322"/>
      <point x="205" y="313"/>
    </contour>
    <component base="l"/>
  </outline>
</glyph>
<glyph name="Eng" format="2">
  <advance width="684"/>
  <unicode hex="014A"/>
  <outline>
    <contour>
      <point x="338" y="-225" type="curve"/>
      <point x="342" y="-225" type="line"/>
      <point x="467" y="-225"/>
      <point x="509" y="-151"/>
      <point x="529" y="-57" type="curve"/>
      <point x="685" y="677" type="line"/>
      <point x="688" y="691"/>
      <point x="681" y="700"/>
      <point x="667" y="700" type="curve"/>
      <point x="649" y="700" type="line"/>
      <point x="636" y="700"/>
      <point x="625" y="691"/>
      <point x="622" y="677" type="curve"/>
      <point x="505" y="124" type="line"/>
      <point x="255" y="688" type="line"/>
      <point x="254" y="691"/>
      <point x="250" y="700"/>
      <point x="237" y="700" type="curve"/>
      <point x="216" y="700" type="line"/>
      <point x="203" y="700"/>
      <point x="192" y="691"/>
      <point x="189" y="677" type="curve"/>
      <point x="50" y="22" type="line"/>
      <point x="47" y="9"/>
      <point x="54" y="0"/>
      <point x="67" y="0" type="curve"/>
      <point x="85" y="0" type="line"/>
      <point x="99" y="0"/>
      <point x="110" y="9"/>
      <point x="113" y="22" type="curve"/>
      <point x="230" y="574" type="line"/>
      <point x="480" y="8" type="line"/>
      <point x="466" y="-57" type="line"/>
      <point x="453" y="-118"/>
      <point x="431" y="-165"/>
      <point x="355" y="-165" type="curve"/>
      <point x="351" y="-165" type="line"/>
      <point x="338" y="-165"/>
      <point x="327" y="-174"/>
      <point x="324" y="-187" type="curve"/>
      <point x="321" y="-203" type="line"/>
      <point x="318" y="-216"/>
      <point x="325" y="-225"/>
    </contour>
  </outline>
</glyph>
<glyph name="uogonek" format="2">
  <advance width="585"/>
  <unicode hex="0173"/>
  <guideline x="-150" y="213" angle="0"/>
  <guideline x="343"/>
  <outline>
    <contour>
      <point x="377" y="-220" type="curve" smooth="yes"/>
      <point x="386" y="-220" type="line" smooth="yes"/>
      <point x="399" y="-220"/>
      <point x="410" y="-211"/>
      <point x="413" y="-198" type="curve" smooth="yes"/>
      <point x="416" y="-185" type="line" smooth="yes"/>
      <point x="419" y="-172"/>
      <point x="412" y="-163"/>
      <point x="399" y="-163" type="curve" smooth="yes"/>
      <point x="394" y="-163" type="line" smooth="yes"/>
      <point x="360" y="-163"/>
      <point x="342" y="-141"/>
      <point x="353" y="-90" type="curve" smooth="yes"/>
      <point x="363" y="-45"/>
      <point x="389" y="-21"/>
      <point x="436" y="-2" type="curve"/>
      <point x="439" y="0" type="line"/>
      <point x="452" y="6"/>
      <point x="458" y="14"/>
      <point x="460" y="22" type="curve" smooth="yes"/>
      <point x="561" y="498" type="line" smooth="yes"/>
      <point x="564" y="511"/>
      <point x="557" y="520"/>
      <point x="544" y="520" type="curve" smooth="yes"/>
      <point x="527" y="520" type="line" smooth="yes"/>
      <point x="514" y="520"/>
      <point x="503" y="511"/>
      <point x="500" y="498" type="curve" smooth="yes"/>
      <point x="441" y="219" type="line" smooth="yes"/>
      <point x="418" y="112"/>
      <point x="342" y="48"/>
      <point x="247" y="48" type="curve" smooth="yes"/>
      <point x="147" y="48"/>
      <point x="111" y="106"/>
      <point x="135" y="219" type="curve" smooth="yes"/>
      <point x="194" y="498" type="line" smooth="yes"/>
      <point x="197" y="511"/>
      <point x="190" y="520"/>
      <point x="177" y="520" type="curve" smooth="yes"/>
      <point x="160" y="520" type="line" smooth="yes"/>
      <point x="147" y="520"/>
      <point x="136" y="511"/>
      <point x="133" y="498" type="curve" smooth="yes"/>
      <point x="73" y="214" type="line" smooth="yes"/>
      <point x="46" y="87"/>
      <point x="89" y="-10"/>
      <point x="225" y="-10" type="curve" smooth="yes"/>
      <point x="311" y="-10"/>
      <point x="363" y="22"/>
      <point x="409" y="69" type="curve"/>
      <point x="403" y="43" type="line"/>
      <point x="403" y="40"/>
      <point x="402" y="38"/>
      <point x="402" y="35" type="curve"/>
      <point x="362" y="18"/>
      <point x="307" y="-26"/>
      <point x="293" y="-90" type="curve" smooth="yes"/>
      <point x="275" y="-175"/>
      <point x="316" y="-220"/>
    </contour>
  </outline>
</glyph>
<glyph name="apostrophemod" format="2">
  <advance width="102"/>
  <unicode hex="02BC"/>
  <outline>
    <contour>
      <point x="-95.646" y="635" type="curve" smooth="yes"/>
      <point x="-77.646" y="635" type="line" smooth="yes"/>
      <point x="-62.646" y="635"/>
      <point x="-54.9452" y="643"/>
      <point x="-43.181400000000004" y="656" type="curve"/>
      <point x="41.1416" y="761" type="line" smooth="yes"/>
      <point x="47.6298" y="768"/>
      <point x="50.9054" y="774"/>
      <point x="52.9684" y="779" type="curve" smooth="yes"/>
      <point x="56.669200000000004" y="787"/>
      <point x="54.370000000000005" y="795"/>
      <point x="45.370000000000005" y="795" type="curve" smooth="yes"/>
      <point x="0.36999999999999744" y="795" type="line" smooth="yes"/>
      <point x="-15.630000000000003" y="795"/>
      <point x="-27.968600000000002" y="784"/>
      <point x="-36.3702" y="768" type="curve" smooth="yes"/>
      <point x="-101.1814" y="656" type="line" smooth="yes"/>
      <point x="-108.7326" y="644"/>
      <point x="-106.646" y="635"/>
    </contour>
  </outline>
</glyph>
<glyph name="caron" format="2">
  <advance width="304"/>
  <unicode hex="02C7"/>
  <outline>
    <contour>
      <point x="137" y="595" type="curve" smooth="yes"/>
      <point x="147" y="595" type="line" smooth="yes"/>
      <point x="157" y="595"/>
      <point x="165" y="595"/>
      <point x="182" y="609" type="curve" smooth="yes"/>
      <point x="294" y="700" type="line"/>
      <point x="300" y="705"/>
      <point x="303" y="711"/>
      <point x="303" y="715" type="curve" smooth="yes"/>
      <point x="303" y="721"/>
      <point x="299" y="725"/>
      <point x="292" y="725" type="curve" smooth="yes"/>
      <point x="258" y="725" type="line" smooth="yes"/>
      <point x="250" y="725"/>
      <point x="246" y="722"/>
      <point x="239" y="718" type="curve" smooth="yes"/>
      <point x="148" y="658" type="line"/>
      <point x="83" y="718" type="line" smooth="yes"/>
      <point x="79" y="722"/>
      <point x="74" y="725"/>
      <point x="66" y="725" type="curve" smooth="yes"/>
      <point x="46" y="725" type="line" smooth="yes"/>
      <point x="38" y="725"/>
      <point x="30" y="719"/>
      <point x="30" y="711" type="curve" smooth="yes"/>
      <point x="30" y="707"/>
      <point x="32" y="703"/>
      <point x="35" y="699" type="curve" smooth="yes"/>
      <point x="108" y="609" type="line" smooth="yes"/>
      <point x="119" y="595"/>
      <point x="127" y="595"/>
    </contour>
  </outline>
</glyph>
<glyph name="E-cy" format="2">
  <advance width="619"/>
  <unicode hex="0404"/>
  <guideline x="12" y="350" angle="0"/>
  <outline>
    <contour>
      <point x="257" y="-10" type="curve" smooth="yes"/>
      <point x="397" y="-10"/>
      <point x="506" y="61"/>
      <point x="539" y="160" type="curve" smooth="yes"/>
      <point x="542" y="172"/>
      <point x="534" y="180"/>
      <point x="522" y="180" type="curve" smooth="yes"/>
      <point x="502" y="180" type="line" smooth="yes"/>
      <point x="489" y="180"/>
      <point x="483" y="175"/>
      <point x="475" y="159" type="curve" smooth="yes"/>
      <point x="448" y="99"/>
      <point x="380" y="50"/>
      <point x="270" y="50" type="curve" smooth="yes"/>
      <point x="147" y="50"/>
      <point x="96" y="143"/>
      <point x="129" y="296" type="curve" smooth="yes"/>
      <point x="134" y="321" type="line"/>
      <point x="398" y="321" type="line" smooth="yes"/>
      <point x="411" y="321"/>
      <point x="422" y="330"/>
      <point x="425" y="344" type="curve" smooth="yes"/>
      <point x="428" y="358" type="line" smooth="yes"/>
      <point x="431" y="372"/>
      <point x="424" y="381"/>
      <point x="411" y="381" type="curve" smooth="yes"/>
      <point x="147" y="381" type="line"/>
      <point x="151" y="404" type="line" smooth="yes"/>
      <point x="187" y="573"/>
      <point x="275" y="650"/>
      <point x="398" y="650" type="curve" smooth="yes"/>
      <point x="508" y="650"/>
      <point x="554" y="601"/>
      <point x="557" y="541" type="curve" smooth="yes"/>
      <point x="557" y="525"/>
      <point x="561" y="520"/>
      <point x="574" y="520" type="curve" smooth="yes"/>
      <point x="594" y="520" type="line" smooth="yes"/>
      <point x="606" y="520"/>
      <point x="618" y="528"/>
      <point x="619" y="540" type="curve" smooth="yes"/>
      <point x="628" y="639"/>
      <point x="551" y="710"/>
      <point x="411" y="710" type="curve" smooth="yes"/>
      <point x="268" y="710"/>
      <point x="142" y="628"/>
      <point x="88" y="404" type="curve" smooth="yes"/>
      <point x="79" y="364"/>
      <point x="73" y="334"/>
      <point x="66" y="296" type="curve" smooth="yes"/>
      <point x="24" y="72"/>
      <point x="114" y="-10"/>
    </contour>
  </outline>
</glyph>
<glyph name="Tshe-cy" format="2">
  <advance width="701"/>
  <unicode hex="040B"/>
  <guideline x="-3"/>
  <guideline x="360"/>
  <outline>
    <contour>
      <point x="143" y="0" type="curve" smooth="yes"/>
      <point x="161" y="0" type="line" smooth="yes"/>
      <point x="174" y="0"/>
      <point x="185" y="9"/>
      <point x="187" y="22" type="curve" smooth="yes"/>
      <point x="242" y="278" type="line" smooth="yes"/>
      <point x="263" y="379"/>
      <point x="385" y="400"/>
      <point x="453" y="400" type="curve" smooth="yes"/>
      <point x="562" y="400"/>
      <point x="594" y="360"/>
      <point x="571" y="251" type="curve" smooth="yes"/>
      <point x="522" y="22" type="line" smooth="yes"/>
      <point x="520" y="9"/>
      <point x="527" y="0"/>
      <point x="541" y="0" type="curve" smooth="yes"/>
      <point x="559" y="0" type="line" smooth="yes"/>
      <point x="572" y="0"/>
      <point x="583" y="9"/>
      <point x="585" y="22" type="curve" smooth="yes"/>
      <point x="635" y="256" type="line" smooth="yes"/>
      <point x="663" y="386"/>
      <point x="606" y="458"/>
      <point x="468" y="458" type="curve" smooth="yes"/>
      <point x="403" y="458"/>
      <point x="307" y="442"/>
      <point x="266" y="393" type="curve"/>
      <point x="319" y="640" type="line"/>
      <point x="546" y="640" type="line" smooth="yes"/>
      <point x="560" y="640"/>
      <point x="571" y="649"/>
      <point x="573" y="662" type="curve" smooth="yes"/>
      <point x="577" y="677" type="line" smooth="yes"/>
      <point x="579" y="691"/>
      <point x="572" y="700"/>
      <point x="558" y="700" type="curve" smooth="yes"/>
      <point x="130" y="700" type="line" smooth="yes"/>
      <point x="117" y="700"/>
      <point x="106" y="691"/>
      <point x="104" y="677" type="curve" smooth="yes"/>
      <point x="100" y="662" type="line" smooth="yes"/>
      <point x="98" y="649"/>
      <point x="105" y="640"/>
      <point x="118" y="640" type="curve" smooth="yes"/>
      <point x="256" y="640" type="line"/>
      <point x="124" y="22" type="line" smooth="yes"/>
      <point x="122" y="9"/>
      <point x="129" y="0"/>
    </contour>
  </outline>
</glyph>
<glyph name="De-cy" format="2">
  <advance width="682"/>
  <unicode hex="0414"/>
  <guideline x="-107" y="-139" angle="0"/>
  <outline>
    <contour>
      <point x="-47" y="-139" type="curve" smooth="yes"/>
      <point x="-29" y="-139" type="line" smooth="yes"/>
      <point x="-15" y="-139"/>
      <point x="-4" y="-130"/>
      <point x="-1" y="-117" type="curve" smooth="yes"/>
      <point x="23" y="0" type="line"/>
      <point x="518" y="0" type="line"/>
      <point x="494" y="-117" type="line" smooth="yes"/>
      <point x="491" y="-130"/>
      <point x="498" y="-139"/>
      <point x="511" y="-139" type="curve" smooth="yes"/>
      <point x="529" y="-139" type="line" smooth="yes"/>
      <point x="543" y="-139"/>
      <point x="554" y="-130"/>
      <point x="557" y="-117" type="curve" smooth="yes"/>
      <point x="589" y="38" type="line" smooth="yes"/>
      <point x="592" y="51"/>
      <point x="585" y="60"/>
      <point x="571" y="60" type="curve" smooth="yes"/>
      <point x="521" y="60" type="line"/>
      <point x="652" y="677" type="line" smooth="yes"/>
      <point x="655" y="691"/>
      <point x="648" y="700"/>
      <point x="634" y="700" type="curve" smooth="yes"/>
      <point x="278" y="700" type="line" smooth="yes"/>
      <point x="265" y="700"/>
      <point x="254" y="691"/>
      <point x="251" y="678" type="curve" smooth="yes"/>
      <point x="205" y="457" type="line" smooth="yes"/>
      <point x="143" y="168"/>
      <point x="80" y="60"/>
      <point x="18" y="60" type="curve" smooth="yes"/>
      <point x="-5" y="60" type="line" smooth="yes"/>
      <point x="-18" y="60"/>
      <point x="-29" y="51"/>
      <point x="-32" y="38" type="curve" smooth="yes"/>
      <point x="-64" y="-117" type="line" smooth="yes"/>
      <point x="-67" y="-130"/>
      <point x="-60" y="-139"/>
    </contour>
    <contour>
      <point x="110" y="60" type="line"/>
      <point x="171" y="119"/>
      <point x="221" y="238"/>
      <point x="266" y="449" type="curve" smooth="yes"/>
      <point x="306" y="640" type="line"/>
      <point x="581" y="640" type="line"/>
      <point x="458" y="60" type="line"/>
    </contour>
  </outline>
</glyph>
<glyph name="Che-cy" format="2">
  <advance width="648"/>
  <unicode hex="0427"/>
  <guideline x="127" y="700" angle="0"/>
  <guideline x="71" y="434" angle="0"/>
  <guideline x="22" y="206" angle="0"/>
  <guideline x="252" y="1286" angle="0"/>
  <guideline x="1588"/>
  <guideline x="29"/>
  <anchor x="429" y="0" name="bottomright"/>
  <anchor x="301" y="273" name="center"/>
  <anchor x="391" y="700" name="top"/>
  <outline>
    <contour>
      <point x="450" y="0" type="curve" smooth="yes"/>
      <point x="468" y="0" type="line" smooth="yes"/>
      <point x="482" y="0"/>
      <point x="493" y="9"/>
      <point x="495" y="22" type="curve" smooth="yes"/>
      <point x="635" y="678" type="line" smooth="yes"/>
      <point x="637" y="691"/>
      <point x="630" y="700"/>
      <point x="616" y="700" type="curve" smooth="yes"/>
      <point x="598" y="700" type="line" smooth="yes"/>
      <point x="585" y="700"/>
      <point x="574" y="691"/>
      <point x="572" y="678" type="curve" smooth="yes"/>
      <point x="517" y="422" type="line" smooth="yes"/>
      <point x="496" y="321"/>
      <point x="380" y="302"/>
      <point x="312" y="302" type="curve" smooth="yes"/>
      <point x="184" y="302"/>
      <point x="147" y="349"/>
      <point x="168" y="449" type="curve" smooth="yes"/>
      <point x="217" y="678" type="line" smooth="yes"/>
      <point x="219" y="691"/>
      <point x="212" y="700"/>
      <point x="198" y="700" type="curve" smooth="yes"/>
      <point x="180" y="700" type="line" smooth="yes"/>
      <point x="167" y="700"/>
      <point x="156" y="691"/>
      <point x="154" y="678" type="curve" smooth="yes"/>
      <point x="104" y="444" type="line" smooth="yes"/>
      <point x="78" y="324"/>
      <point x="143" y="242"/>
      <point x="291" y="242" type="curve" smooth="yes"/>
      <point x="356" y="242"/>
      <point x="452" y="258"/>
      <point x="491" y="297" type="curve"/>
      <point x="432" y="22" type="line" smooth="yes"/>
      <point x="430" y="9"/>
      <point x="437" y="0"/>
    </contour>
  </outline>
</glyph>
<glyph name="Shcha-cy" format="2">
  <advance width="961"/>
  <unicode hex="0429"/>
  <guideline x="-7" y="-110" angle="0"/>
  <guideline x="29" y="60" angle="0"/>
  <outline>
    <contour>
      <point x="790" y="-140" type="curve" smooth="yes"/>
      <point x="808" y="-140" type="line" smooth="yes"/>
      <point x="822" y="-140"/>
      <point x="833" y="-131"/>
      <point x="835" y="-118" type="curve" smooth="yes"/>
      <point x="869" y="38" type="line" smooth="yes"/>
      <point x="871" y="51"/>
      <point x="864" y="60"/>
      <point x="850" y="60" type="curve" smooth="yes"/>
      <point x="800" y="60" type="line"/>
      <point x="932" y="678" type="line" smooth="yes"/>
      <point x="934" y="691"/>
      <point x="927" y="700"/>
      <point x="913" y="700" type="curve" smooth="yes"/>
      <point x="895" y="700" type="line" smooth="yes"/>
      <point x="882" y="700"/>
      <point x="871" y="691"/>
      <point x="869" y="678" type="curve" smooth="yes"/>
      <point x="737" y="60" type="line"/>
      <point x="453" y="60" type="line"/>
      <point x="585" y="678" type="line" smooth="yes"/>
      <point x="588" y="691"/>
      <point x="580" y="700"/>
      <point x="566" y="700" type="curve" smooth="yes"/>
      <point x="548" y="700" type="line" smooth="yes"/>
      <point x="535" y="700"/>
      <point x="525" y="691"/>
      <point x="522" y="678" type="curve" smooth="yes"/>
      <point x="390" y="60" type="line"/>
      <point x="106" y="60" type="line"/>
      <point x="238" y="678" type="line" smooth="yes"/>
      <point x="241" y="691"/>
      <point x="233" y="700"/>
      <point x="219" y="700" type="curve" smooth="yes"/>
      <point x="201" y="700" type="line" smooth="yes"/>
      <point x="188" y="700"/>
      <point x="178" y="691"/>
      <point x="175" y="678" type="curve" smooth="yes"/>
      <point x="35" y="22" type="line" smooth="yes"/>
      <point x="32" y="9"/>
      <point x="39" y="0"/>
      <point x="52" y="0" type="curve"/>
      <point x="797" y="0" type="line"/>
      <point x="772" y="-118" type="line" smooth="yes"/>
      <point x="770" y="-131"/>
      <point x="777" y="-140"/>
    </contour>
  </outline>
</glyph>
<glyph name="Softsign-cy" format="2">
  <advance width="591"/>
  <unicode hex="042C"/>
  <outline>
    <contour>
      <point x="53" y="0" type="curve" smooth="yes"/>
      <point x="267" y="0" type="line" smooth="yes"/>
      <point x="413" y="0"/>
      <point x="500" y="111"/>
      <point x="522" y="214" type="curve" smooth="yes"/>
      <point x="547" y="331"/>
      <point x="500" y="418"/>
      <point x="356" y="418" type="curve" smooth="yes"/>
      <point x="183" y="418" type="line"/>
      <point x="238" y="678" type="line" smooth="yes"/>
      <point x="241" y="691"/>
      <point x="233" y="700"/>
      <point x="219" y="700" type="curve" smooth="yes"/>
      <point x="201" y="700" type="line"/>
      <point x="188" y="700"/>
      <point x="177" y="691"/>
      <point x="175" y="678" type="curve" smooth="yes"/>
      <point x="35" y="22" type="line" smooth="yes"/>
      <point x="33" y="9"/>
      <point x="40" y="0"/>
    </contour>
    <contour>
      <point x="106" y="60" type="line"/>
      <point x="171" y="363" type="line"/>
      <point x="334" y="363" type="line" smooth="yes"/>
      <point x="441" y="363"/>
      <point x="480" y="314"/>
      <point x="460" y="217" type="curve" smooth="yes"/>
      <point x="440" y="122"/>
      <point x="368" y="60"/>
      <point x="269" y="60" type="curve" smooth="yes"/>
    </contour>
  </outline>
</glyph>
<glyph name="Iu-cy" format="2">
  <advance width="914"/>
  <unicode hex="042E"/>
  <guideline x="1" y="355" angle="0"/>
  <outline>
    <contour>
      <point x="506" y="-10" type="curve" smooth="yes"/>
      <point x="702" y="-10"/>
      <point x="792" y="117"/>
      <point x="829" y="266" type="curve" smooth="yes"/>
      <point x="844" y="326"/>
      <point x="854" y="374"/>
      <point x="865" y="434" type="curve" smooth="yes"/>
      <point x="891" y="579"/>
      <point x="856" y="710"/>
      <point x="660" y="710" type="curve" smooth="yes"/>
      <point x="464" y="710"/>
      <point x="373" y="579"/>
      <point x="337" y="434" type="curve" smooth="yes"/>
      <point x="332" y="417"/>
      <point x="328" y="400"/>
      <point x="324" y="385" type="curve"/>
      <point x="164" y="385" type="line"/>
      <point x="227" y="678" type="line" smooth="yes"/>
      <point x="229" y="691"/>
      <point x="222" y="700"/>
      <point x="208" y="700" type="curve" smooth="yes"/>
      <point x="190" y="700" type="line" smooth="yes"/>
      <point x="177" y="700"/>
      <point x="166" y="691"/>
      <point x="164" y="678" type="curve" smooth="yes"/>
      <point x="24" y="22" type="line" smooth="yes"/>
      <point x="22" y="9"/>
      <point x="29" y="0"/>
      <point x="42" y="0" type="curve" smooth="yes"/>
      <point x="60" y="0" type="line" smooth="yes"/>
      <point x="74" y="0"/>
      <point x="85" y="9"/>
      <point x="87" y="22" type="curve" smooth="yes"/>
      <point x="152" y="325" type="line"/>
      <point x="312" y="325" type="line"/>
      <point x="308" y="306"/>
      <point x="305" y="287"/>
      <point x="301" y="266" type="curve" smooth="yes"/>
      <point x="274" y="117"/>
      <point x="310" y="-10"/>
    </contour>
    <contour>
      <point x="519" y="50" type="curve" smooth="yes"/>
      <point x="405" y="50"/>
      <point x="336" y="110"/>
      <point x="364" y="266" type="curve" smooth="yes"/>
      <point x="375" y="326"/>
      <point x="385" y="374"/>
      <point x="400" y="434" type="curve" smooth="yes"/>
      <point x="438" y="590"/>
      <point x="534" y="650"/>
      <point x="647" y="650" type="curve" smooth="yes"/>
      <point x="760" y="650"/>
      <point x="830" y="590"/>
      <point x="802" y="434" type="curve" smooth="yes"/>
      <point x="791" y="374"/>
      <point x="781" y="326"/>
      <point x="766" y="266" type="curve" smooth="yes"/>
      <point x="728" y="110"/>
      <point x="633" y="50"/>
    </contour>
  </outline>
</glyph>
<glyph name="de-cy" format="2">
  <advance width="574"/>
  <unicode hex="0434"/>
  <guideline x="-140" y="-110" angle="0"/>
  <guideline x="349"/>
  <guideline x="-57"/>
  <guideline x="391"/>
  <outline>
    <contour>
      <point x="217" y="-10" type="curve" smooth="yes"/>
      <point x="362" y="-10"/>
      <point x="450" y="89"/>
      <point x="482" y="218" type="curve" smooth="yes"/>
      <point x="487" y="233"/>
      <point x="496" y="267"/>
      <point x="500" y="282" type="curve" smooth="yes"/>
      <point x="582" y="576"/>
      <point x="554" y="741"/>
      <point x="299" y="750" type="curve"/>
      <point x="286" y="750"/>
      <point x="276" y="740"/>
      <point x="276" y="727" type="curve" smooth="yes"/>
      <point x="276" y="714" type="line" smooth="yes"/>
      <point x="276" y="702"/>
      <point x="285" y="692"/>
      <point x="299" y="692" type="curve"/>
      <point x="470" y="686"/>
      <point x="504" y="598"/>
      <point x="469" y="415" type="curve"/>
      <point x="438" y="468"/>
      <point x="389" y="500"/>
      <point x="320" y="500" type="curve" smooth="yes"/>
      <point x="175" y="500"/>
      <point x="84" y="405"/>
      <point x="53" y="282" type="curve" smooth="yes"/>
      <point x="47" y="259"/>
      <point x="41" y="233"/>
      <point x="38" y="218" type="curve" smooth="yes"/>
      <point x="14" y="89"/>
      <point x="78" y="-10"/>
    </contour>
    <contour>
      <point x="217" y="48" type="curve" smooth="yes"/>
      <point x="121" y="48"/>
      <point x="80" y="109"/>
      <point x="100" y="223" type="curve" smooth="yes"/>
      <point x="103" y="238"/>
      <point x="108" y="261"/>
      <point x="113" y="277" type="curve" smooth="yes"/>
      <point x="146" y="383"/>
      <point x="216" y="442"/>
      <point x="320" y="442" type="curve" smooth="yes"/>
      <point x="405" y="442"/>
      <point x="458" y="374"/>
      <point x="438" y="277" type="curve" smooth="yes"/>
      <point x="435" y="262"/>
      <point x="427" y="238"/>
      <point x="422" y="223" type="curve" smooth="yes"/>
      <point x="394" y="109"/>
      <point x="311" y="48"/>
    </contour>
  </outline>
</glyph>
<glyph name="zhe-cy" format="2">
  <advance width="749"/>
  <unicode hex="0436"/>
  <guideline x="23"/>
  <anchor x="597" y="0" name="bottomright"/>
  <anchor x="430" y="520" name="top"/>
  <outline>
    <contour>
      <point x="-11" y="0" type="curve" smooth="yes"/>
      <point x="20" y="0" type="line" smooth="yes"/>
      <point x="32" y="0"/>
      <point x="41" y="5"/>
      <point x="49" y="14" type="curve" smooth="yes"/>
      <point x="255" y="237" type="line"/>
      <point x="340" y="237" type="line"/>
      <point x="294" y="22" type="line" smooth="yes"/>
      <point x="292" y="9"/>
      <point x="299" y="0"/>
      <point x="312" y="0" type="curve" smooth="yes"/>
      <point x="329" y="0" type="line" smooth="yes"/>
      <point x="342" y="0"/>
      <point x="353" y="9"/>
      <point x="355" y="22" type="curve" smooth="yes"/>
      <point x="401" y="237" type="line"/>
      <point x="498" y="237" type="line"/>
      <point x="609" y="14" type="line"/>
      <point x="614" y="5"/>
      <point x="620" y="0"/>
      <point x="632" y="0" type="curve" smooth="yes"/>
      <point x="650" y="0" type="line" smooth="yes"/>
      <point x="662" y="0"/>
      <point x="670" y="5"/>
      <point x="672" y="14" type="curve" smooth="yes"/>
      <point x="673" y="18"/>
      <point x="671" y="22"/>
      <point x="669" y="27" type="curve" smooth="yes"/>
      <point x="547" y="273" type="line"/>
      <point x="750" y="494" type="line" smooth="yes"/>
      <point x="755" y="499"/>
      <point x="757" y="503"/>
      <point x="757" y="506" type="curve" smooth="yes"/>
      <point x="759" y="515"/>
      <point x="752" y="520"/>
      <point x="740" y="520" type="curve" smooth="yes"/>
      <point x="711" y="520" type="line" smooth="yes"/>
      <point x="699" y="520"/>
      <point x="691" y="515"/>
      <point x="682" y="505" type="curve" smooth="yes"/>
      <point x="496" y="295" type="line"/>
      <point x="413" y="295" type="line"/>
      <point x="457" y="498" type="line" smooth="yes"/>
      <point x="459" y="511"/>
      <point x="452" y="520"/>
      <point x="439" y="520" type="curve" smooth="yes"/>
      <point x="422" y="520" type="line" smooth="yes"/>
      <point x="409" y="520"/>
      <point x="398" y="511"/>
      <point x="396" y="498" type="curve" smooth="yes"/>
      <point x="352" y="295" type="line"/>
      <point x="264" y="295" type="line"/>
      <point x="161" y="505" type="line" smooth="yes"/>
      <point x="156" y="515"/>
      <point x="150" y="520"/>
      <point x="138" y="520" type="curve" smooth="yes"/>
      <point x="123" y="520" type="line" smooth="yes"/>
      <point x="111" y="520"/>
      <point x="104" y="515"/>
      <point x="101" y="506" type="curve" smooth="yes"/>
      <point x="100" y="503"/>
      <point x="100" y="499"/>
      <point x="103" y="494" type="curve" smooth="yes"/>
      <point x="210" y="276" type="line"/>
      <point x="-20" y="27" type="line" smooth="yes"/>
      <point x="-25" y="22"/>
      <point x="-26" y="18"/>
      <point x="-27" y="14" type="curve" smooth="yes"/>
      <point x="-29" y="5"/>
      <point x="-23" y="0"/>
    </contour>
  </outline>
</glyph>
<glyph name="ze-cy" format="2">
  <advance width="507"/>
  <unicode hex="0437"/>
  <anchor x="196" y="0" name="bottom"/>
  <anchor x="302" y="520" name="top"/>
  <outline>
    <contour>
      <point x="199" y="-10" type="curve" smooth="yes"/>
      <point x="315" y="-10"/>
      <point x="411" y="47"/>
      <point x="428" y="134" type="curve" smooth="yes"/>
      <point x="443" y="206"/>
      <point x="420" y="253"/>
      <point x="363" y="271" type="curve"/>
      <point x="418" y="296"/>
      <point x="447" y="329"/>
      <point x="459" y="385" type="curve" smooth="yes"/>
      <point x="471" y="444"/>
      <point x="443" y="530"/>
      <point x="303" y="530" type="curve" smooth="yes"/>
      <point x="177" y="530"/>
      <point x="96" y="463"/>
      <point x="78" y="379" type="curve" smooth="yes"/>
      <point x="76" y="367"/>
      <point x="83" y="359"/>
      <point x="95" y="359" type="curve"/>
      <point x="112" y="359" type="line" smooth="yes"/>
      <point x="124" y="359"/>
      <point x="133" y="364"/>
      <point x="141" y="380" type="curve" smooth="yes"/>
      <point x="168" y="440"/>
      <point x="214" y="473"/>
      <point x="303" y="473" type="curve" smooth="yes"/>
      <point x="398" y="473"/>
      <point x="405" y="422"/>
      <point x="395" y="375" type="curve" smooth="yes"/>
      <point x="384" y="320"/>
      <point x="343" y="298"/>
      <point x="283" y="298" type="curve" smooth="yes"/>
      <point x="236" y="298" type="line" smooth="yes"/>
      <point x="223" y="298"/>
      <point x="212" y="289"/>
      <point x="209" y="276" type="curve" smooth="yes"/>
      <point x="206" y="262" type="line" smooth="yes"/>
      <point x="204" y="249"/>
      <point x="211" y="240"/>
      <point x="224" y="240" type="curve" smooth="yes"/>
      <point x="278" y="240" type="line" smooth="yes"/>
      <point x="351" y="240"/>
      <point x="380" y="208"/>
      <point x="366" y="144" type="curve" smooth="yes"/>
      <point x="352" y="77"/>
      <point x="283" y="48"/>
      <point x="211" y="48" type="curve" smooth="yes"/>
      <point x="136" y="48"/>
      <point x="84" y="67"/>
      <point x="80" y="130" type="curve" smooth="yes"/>
      <point x="80" y="146"/>
      <point x="73" y="151"/>
      <point x="61" y="151" type="curve" smooth="yes"/>
      <point x="44" y="151" type="line" smooth="yes"/>
      <point x="32" y="151"/>
      <point x="21" y="143"/>
      <point x="19" y="131" type="curve" smooth="yes"/>
      <point x="7" y="76"/>
      <point x="53" y="-10"/>
    </contour>
  </outline>
</glyph>
<glyph name="ef-cy" format="2">
  <advance width="678"/>
  <unicode hex="0444"/>
  <guideline x="-58" y="-190" angle="0"/>
  <guideline x="134" y="710" angle="0"/>
  <outline>
    <contour>
      <point x="226" y="-190" type="curve" smooth="yes"/>
      <point x="243" y="-190" type="line" smooth="yes"/>
      <point x="256" y="-190"/>
      <point x="267" y="-181"/>
      <point x="270" y="-168" type="curve" smooth="yes"/>
      <point x="306" y="0" type="line"/>
      <point x="480" y="0"/>
      <point x="573" y="99"/>
      <point x="606" y="228" type="curve" smooth="yes"/>
      <point x="611" y="248"/>
      <point x="617" y="272"/>
      <point x="620" y="292" type="curve" smooth="yes"/>
      <point x="638" y="411"/>
      <point x="580" y="520"/>
      <point x="416" y="520" type="curve"/>
      <point x="452" y="688" type="line" smooth="yes"/>
      <point x="455" y="701"/>
      <point x="448" y="710"/>
      <point x="435" y="710" type="curve" smooth="yes"/>
      <point x="418" y="710" type="line" smooth="yes"/>
      <point x="405" y="710"/>
      <point x="394" y="701"/>
      <point x="391" y="688" type="curve" smooth="yes"/>
      <point x="355" y="520" type="line"/>
      <point x="181" y="520"/>
      <point x="88" y="421"/>
      <point x="55" y="292" type="curve" smooth="yes"/>
      <point x="50" y="272"/>
      <point x="44" y="248"/>
      <point x="41" y="228" type="curve" smooth="yes"/>
      <point x="23" y="109"/>
      <point x="81" y="0"/>
      <point x="245" y="0" type="curve"/>
      <point x="209" y="-168" type="line" smooth="yes"/>
      <point x="206" y="-181"/>
      <point x="213" y="-190"/>
    </contour>
    <contour>
      <point x="257" y="58" type="line"/>
      <point x="134" y="58"/>
      <point x="85" y="119"/>
      <point x="103" y="233" type="curve" smooth="yes"/>
      <point x="107" y="253"/>
      <point x="109" y="267"/>
      <point x="115" y="287" type="curve" smooth="yes"/>
      <point x="145" y="401"/>
      <point x="220" y="462"/>
      <point x="343" y="462" type="curve"/>
    </contour>
    <contour>
      <point x="318" y="58" type="curve"/>
      <point x="404" y="462" type="line"/>
      <point x="527" y="462"/>
      <point x="576" y="401"/>
      <point x="558" y="287" type="curve" smooth="yes"/>
      <point x="554" y="267"/>
      <point x="552" y="253"/>
      <point x="546" y="233" type="curve" smooth="yes"/>
      <point x="516" y="119"/>
      <point x="441" y="58"/>
    </contour>
  </outline>
</glyph>
<glyph name="tse-cy" format="2">
  <advance width="605"/>
  <unicode hex="0446"/>
  <guideline x="-29" y="58" angle="0"/>
  <guideline x="-65" y="-110" angle="0"/>
  <guideline x="29"/>
  <outline>
    <contour>
      <point x="458" y="-130" type="curve" smooth="yes"/>
      <point x="475" y="-130" type="line" smooth="yes"/>
      <point x="488" y="-130"/>
      <point x="499" y="-121"/>
      <point x="502" y="-108" type="curve" smooth="yes"/>
      <point x="532" y="36" type="line" smooth="yes"/>
      <point x="535" y="49"/>
      <point x="528" y="58"/>
      <point x="515" y="58" type="curve" smooth="yes"/>
      <point x="465" y="58" type="line"/>
      <point x="559" y="498" type="line" smooth="yes"/>
      <point x="562" y="511"/>
      <point x="555" y="520"/>
      <point x="542" y="520" type="curve" smooth="yes"/>
      <point x="525" y="520" type="line" smooth="yes"/>
      <point x="512" y="520"/>
      <point x="501" y="511"/>
      <point x="498" y="498" type="curve" smooth="yes"/>
      <point x="405" y="58" type="line"/>
      <point x="113" y="58" type="line"/>
      <point x="206" y="498" type="line"/>
      <point x="209" y="511"/>
      <point x="202" y="520"/>
      <point x="189" y="520" type="curve" smooth="yes"/>
      <point x="172" y="520" type="line" smooth="yes"/>
      <point x="159" y="520"/>
      <point x="148" y="511"/>
      <point x="145" y="498" type="curve" smooth="yes"/>
      <point x="44" y="22" type="line" smooth="yes"/>
      <point x="41" y="9"/>
      <point x="49" y="0"/>
      <point x="62" y="0" type="curve" smooth="yes"/>
      <point x="464" y="0" type="line"/>
      <point x="441" y="-108" type="line" smooth="yes"/>
      <point x="438" y="-121"/>
      <point x="445" y="-130"/>
    </contour>
  </outline>
</glyph>
<glyph name="dje-cy" format="2">
  <advance width="553"/>
  <unicode hex="0452"/>
  <guideline x="76" y="620" angle="0"/>
  <guideline x="84"/>
  <guideline x="497"/>
  <guideline x="426"/>
  <outline>
    <contour>
      <point x="172" y="-190" type="curve"/>
      <point x="176" y="-190" type="line"/>
      <point x="371" y="-190"/>
      <point x="448" y="-46"/>
      <point x="487" y="138" type="curve"/>
      <point x="510" y="246" type="line" smooth="yes"/>
      <point x="539" y="383"/>
      <point x="470" y="470"/>
      <point x="354" y="470" type="curve" smooth="yes"/>
      <point x="268" y="470"/>
      <point x="215" y="438"/>
      <point x="169" y="391" type="curve"/>
      <point x="201" y="541" type="line"/>
      <point x="389" y="541" type="line"/>
      <point x="402" y="541"/>
      <point x="413" y="550"/>
      <point x="415" y="563" type="curve"/>
      <point x="418" y="577" type="line"/>
      <point x="421" y="590"/>
      <point x="414" y="599"/>
      <point x="401" y="599" type="curve"/>
      <point x="213" y="599" type="line"/>
      <point x="232" y="688" type="line"/>
      <point x="235" y="701"/>
      <point x="228" y="710"/>
      <point x="215" y="710" type="curve"/>
      <point x="198" y="710" type="line"/>
      <point x="185" y="710"/>
      <point x="174" y="701"/>
      <point x="171" y="688" type="curve"/>
      <point x="152" y="599" type="line"/>
      <point x="94" y="599" type="line"/>
      <point x="81" y="599"/>
      <point x="70" y="590"/>
      <point x="67" y="577" type="curve"/>
      <point x="64" y="563" type="line"/>
      <point x="62" y="550"/>
      <point x="69" y="541"/>
      <point x="82" y="541" type="curve"/>
      <point x="140" y="541" type="line"/>
      <point x="29" y="22" type="line"/>
      <point x="27" y="9"/>
      <point x="34" y="0"/>
      <point x="47" y="0" type="curve"/>
      <point x="64" y="0" type="line"/>
      <point x="77" y="0"/>
      <point x="88" y="9"/>
      <point x="90" y="22" type="curve"/>
      <point x="137" y="241" type="line"/>
      <point x="160" y="348"/>
      <point x="236" y="412"/>
      <point x="341" y="412" type="curve" smooth="yes"/>
      <point x="431" y="412"/>
      <point x="472" y="357"/>
      <point x="448" y="241" type="curve"/>
      <point x="426" y="138" type="line"/>
      <point x="394" y="-12"/>
      <point x="351" y="-132"/>
      <point x="189" y="-132" type="curve"/>
      <point x="185" y="-132" type="line"/>
      <point x="172" y="-132"/>
      <point x="161" y="-141"/>
      <point x="158" y="-154" type="curve"/>
      <point x="155" y="-168" type="line"/>
      <point x="152" y="-181"/>
      <point x="159" y="-190"/>
    </contour>
  </outline>
</glyph>
<glyph name="e-cy" format="2">
  <advance width="536"/>
  <unicode hex="0454"/>
  <outline>
    <contour>
      <point x="221" y="-10" type="curve" smooth="yes"/>
      <point x="362" y="-10"/>
      <point x="443" y="77"/>
      <point x="461" y="149" type="curve" smooth="yes"/>
      <point x="465" y="162"/>
      <point x="456" y="171"/>
      <point x="444" y="171" type="curve" smooth="yes"/>
      <point x="430" y="171" type="line" smooth="yes"/>
      <point x="416" y="171"/>
      <point x="411" y="166"/>
      <point x="402" y="150" type="curve" smooth="yes"/>
      <point x="357" y="74"/>
      <point x="303" y="48"/>
      <point x="233" y="48" type="curve" smooth="yes"/>
      <point x="142" y="48"/>
      <point x="88" y="100"/>
      <point x="111" y="225" type="curve" smooth="yes"/>
      <point x="112" y="231" type="line"/>
      <point x="326" y="231" type="line" smooth="yes"/>
      <point x="339" y="231"/>
      <point x="350" y="240"/>
      <point x="353" y="253" type="curve" smooth="yes"/>
      <point x="355" y="267" type="line" smooth="yes"/>
      <point x="358" y="280"/>
      <point x="351" y="289"/>
      <point x="338" y="289" type="curve" smooth="yes"/>
      <point x="124" y="289" type="line"/>
      <point x="125" y="295" type="line" smooth="yes"/>
      <point x="156" y="420"/>
      <point x="232" y="472"/>
      <point x="323" y="472" type="curve" smooth="yes"/>
      <point x="393" y="472"/>
      <point x="437" y="446"/>
      <point x="448" y="370" type="curve" smooth="yes"/>
      <point x="451" y="354"/>
      <point x="454" y="349"/>
      <point x="468" y="349" type="curve" smooth="yes"/>
      <point x="482" y="349" type="line" smooth="yes"/>
      <point x="494" y="349"/>
      <point x="507" y="358"/>
      <point x="509" y="371" type="curve" smooth="yes"/>
      <point x="521" y="443"/>
      <point x="476" y="530"/>
      <point x="335" y="530" type="curve" smooth="yes"/>
      <point x="194" y="530"/>
      <point x="100" y="443"/>
      <point x="66" y="300" type="curve" smooth="yes"/>
      <point x="60" y="280"/>
      <point x="52" y="240"/>
      <point x="48" y="220" type="curve" smooth="yes"/>
      <point x="22" y="77"/>
      <point x="80" y="-10"/>
    </contour>
  </outline>
</glyph>
<glyph name="tshe-cy" format="2">
  <advance width="553"/>
  <unicode hex="045B"/>
  <guideline x="77" y="629" angle="0"/>
  <guideline x="54"/>
  <outline>
    <contour>
      <point x="47" y="0" type="curve" smooth="yes"/>
      <point x="64" y="0" type="line" smooth="yes"/>
      <point x="77" y="0"/>
      <point x="87" y="9"/>
      <point x="90" y="22" type="curve" smooth="yes"/>
      <point x="137" y="241" type="line" smooth="yes"/>
      <point x="160" y="348"/>
      <point x="236" y="412"/>
      <point x="351" y="412" type="curve" smooth="yes"/>
      <point x="451" y="412"/>
      <point x="473" y="356"/>
      <point x="448" y="241" type="curve" smooth="yes"/>
      <point x="401" y="22" type="line" smooth="yes"/>
      <point x="398" y="9"/>
      <point x="406" y="0"/>
      <point x="419" y="0" type="curve" smooth="yes"/>
      <point x="436" y="0" type="line" smooth="yes"/>
      <point x="449" y="0"/>
      <point x="459" y="9"/>
      <point x="462" y="22" type="curve" smooth="yes"/>
      <point x="510" y="246" type="line" smooth="yes"/>
      <point x="537" y="373"/>
      <point x="495" y="470"/>
      <point x="359" y="470" type="curve" smooth="yes"/>
      <point x="263" y="470"/>
      <point x="215" y="438"/>
      <point x="169" y="391" type="curve"/>
      <point x="201" y="541" type="line"/>
      <point x="389" y="541" type="line" smooth="yes"/>
      <point x="402" y="541"/>
      <point x="412" y="550"/>
      <point x="415" y="563" type="curve" smooth="yes"/>
      <point x="418" y="577" type="line" smooth="yes"/>
      <point x="421" y="590"/>
      <point x="414" y="599"/>
      <point x="401" y="599" type="curve" smooth="yes"/>
      <point x="213" y="599" type="line"/>
      <point x="232" y="688" type="line" smooth="yes"/>
      <point x="235" y="701"/>
      <point x="227" y="710"/>
      <point x="214" y="710" type="curve" smooth="yes"/>
      <point x="197" y="710" type="line" smooth="yes"/>
      <point x="184" y="710"/>
      <point x="174" y="701"/>
      <point x="171" y="688" type="curve" smooth="yes"/>
      <point x="152" y="599" type="line"/>
      <point x="94" y="599" type="line" smooth="yes"/>
      <point x="81" y="599"/>
      <point x="70" y="590"/>
      <point x="67" y="577" type="curve" smooth="yes"/>
      <point x="64" y="563" type="line" smooth="yes"/>
      <point x="61" y="550"/>
      <point x="69" y="541"/>
      <point x="82" y="541" type="curve" smooth="yes"/>
      <point x="140" y="541" type="line"/>
      <point x="29" y="22" type="line" smooth="yes"/>
      <point x="26" y="9"/>
      <point x="34" y="0"/>
    </contour>
  </outline>
</glyph>
<glyph name="ghestroke-cy" format="2">
  <advance width="418"/>
  <unicode hex="0493"/>
  <outline>
    <contour>
      <point x="48" y="0" type="curve" smooth="yes"/>
      <point x="65" y="0" type="line" smooth="yes"/>
      <point x="78" y="0"/>
      <point x="89" y="9"/>
      <point x="91" y="22" type="curve" smooth="yes"/>
      <point x="185" y="462" type="line"/>
      <point x="429" y="462" type="line" smooth="yes"/>
      <point x="442" y="462"/>
      <point x="453" y="471"/>
      <point x="456" y="484" type="curve" smooth="yes"/>
      <point x="459" y="498" type="line" smooth="yes"/>
      <point x="461" y="511"/>
      <point x="454" y="520"/>
      <point x="441" y="520" type="curve" smooth="yes"/>
      <point x="158" y="520" type="line" smooth="yes"/>
      <point x="145" y="520"/>
      <point x="134" y="511"/>
      <point x="132" y="498" type="curve" smooth="yes"/>
      <point x="30" y="22" type="line" smooth="yes"/>
      <point x="28" y="9"/>
      <point x="35" y="0"/>
    </contour>
    <contour>
      <point x="20" y="231" type="curve" smooth="yes"/>
      <point x="265" y="231" type="line" smooth="yes"/>
      <point x="278" y="231"/>
      <point x="289" y="240"/>
      <point x="292" y="253" type="curve" smooth="yes"/>
      <point x="294" y="267" type="line" smooth="yes"/>
      <point x="297" y="280"/>
      <point x="290" y="289"/>
      <point x="277" y="289" type="curve" smooth="yes"/>
      <point x="32" y="289" type="line" smooth="yes"/>
      <point x="19" y="289"/>
      <point x="8" y="280"/>
      <point x="5" y="267" type="curve" smooth="yes"/>
      <point x="3" y="253" type="line" smooth="yes"/>
      <point x="0" y="240"/>
      <point x="7" y="231"/>
    </contour>
  </outline>
</glyph>
<glyph name="Kaverticalstroke-cy" format="2">
  <advance width="616"/>
  <unicode hex="049C"/>
  <outline>
    <contour>
      <point x="225" y="203" type="curve" smooth="yes"/>
      <point x="229" y="203" type="line" smooth="yes"/>
      <point x="242" y="203"/>
      <point x="253" y="212"/>
      <point x="255" y="225" type="curve" smooth="yes"/>
      <point x="312" y="490" type="line" smooth="yes"/>
      <point x="315" y="503"/>
      <point x="307" y="512"/>
      <point x="294" y="512" type="curve" smooth="yes"/>
      <point x="290" y="512" type="line" smooth="yes"/>
      <point x="277" y="512"/>
      <point x="267" y="503"/>
      <point x="264" y="490" type="curve" smooth="yes"/>
      <point x="207" y="225" type="line" smooth="yes"/>
      <point x="205" y="212"/>
      <point x="212" y="203"/>
    </contour>
    <contour>
      <point x="607" y="700" type="curve" smooth="yes"/>
      <point x="585" y="700" type="line" smooth="yes"/>
      <point x="569" y="700"/>
      <point x="558" y="695"/>
      <point x="549" y="685" type="curve"/>
      <point x="298" y="384" type="line"/>
      <point x="165" y="385" type="line"/>
      <point x="228" y="677" type="line"/>
      <point x="230" y="691"/>
      <point x="223" y="700"/>
      <point x="209" y="700" type="curve" smooth="yes"/>
      <point x="191" y="700" type="line" smooth="yes"/>
      <point x="178" y="700"/>
      <point x="167" y="691"/>
      <point x="165" y="677" type="curve"/>
      <point x="25" y="22" type="line"/>
      <point x="23" y="9"/>
      <point x="30" y="0"/>
      <point x="43" y="0" type="curve" smooth="yes"/>
      <point x="61" y="0" type="line" smooth="yes"/>
      <point x="75" y="0"/>
      <point x="86" y="9"/>
      <point x="88" y="22" type="curve"/>
      <point x="153" y="325" type="line"/>
      <point x="297" y="325" type="line"/>
      <point x="440" y="13" type="line" smooth="yes"/>
      <point x="444" y="5"/>
      <point x="449" y="0"/>
      <point x="461" y="0" type="curve" smooth="yes"/>
      <point x="473" y="0" type="line" smooth="yes"/>
      <point x="489" y="0"/>
      <point x="502" y="16"/>
      <point x="502" y="29" type="curve" smooth="yes"/>
      <point x="502" y="31"/>
      <point x="502" y="33"/>
      <point x="501" y="35" type="curve"/>
      <point x="355" y="360" type="line"/>
      <point x="615" y="667" type="line" smooth="yes"/>
      <point x="621" y="675"/>
      <point x="624" y="682"/>
      <point x="624" y="687" type="curve" smooth="yes"/>
      <point x="624" y="695"/>
      <point x="618" y="700"/>
    </contour>
  </outline>
</glyph>
<glyph name="Kabashkir-cy" format="2">
  <advance width="774"/>
  <unicode hex="04A0"/>
  <outline>
    <contour>
      <point x="316" y="640" type="line"/>
      <point x="387" y="677" type="line"/>
      <point x="389" y="691"/>
      <point x="382" y="700"/>
      <point x="368" y="700" type="curve" smooth="yes"/>
      <point x="130" y="700" type="line" smooth="yes"/>
      <point x="117" y="700"/>
      <point x="106" y="691"/>
      <point x="104" y="677" type="curve" smooth="yes"/>
      <point x="100" y="662" type="line" smooth="yes"/>
      <point x="98" y="649"/>
      <point x="105" y="640"/>
      <point x="118" y="640" type="curve" smooth="yes"/>
    </contour>
    <component base="Ka-cy" xOffset="149"/>
  </outline>
</glyph>
<glyph name="kabashkir-cy" format="2">
  <advance width="613"/>
  <unicode hex="04A1"/>
  <outline>
    <contour>
      <point x="241" y="462" type="line"/>
      <point x="310" y="498" type="line"/>
      <point x="312" y="511"/>
      <point x="305" y="520"/>
      <point x="292" y="520" type="curve" smooth="yes"/>
      <point x="90" y="520" type="line" smooth="yes"/>
      <point x="77" y="520"/>
      <point x="66" y="511"/>
      <point x="64" y="498" type="curve" smooth="yes"/>
      <point x="61" y="484" type="line" smooth="yes"/>
      <point x="58" y="471"/>
      <point x="65" y="462"/>
      <point x="78" y="462" type="curve" smooth="yes"/>
    </contour>
    <component base="ka-cy" xOffset="117"/>
  </outline>
</glyph>
<glyph name="endescender-cy" format="2">
  <advance width="612"/>
  <unicode hex="04A3"/>
  <outline>
    <contour>
      <point x="49" y="0" type="curve" smooth="yes"/>
      <point x="66" y="0" type="line" smooth="yes"/>
      <point x="79" y="0"/>
      <point x="89" y="9"/>
      <point x="92" y="22" type="curve" smooth="yes"/>
      <point x="138" y="237" type="line"/>
      <point x="450" y="237" type="line"/>
      <point x="404" y="22" type="line" smooth="yes"/>
      <point x="401" y="9"/>
      <point x="409" y="0"/>
      <point x="422" y="0" type="curve" smooth="yes"/>
      <point x="439" y="0" type="line" smooth="yes"/>
      <point x="452" y="0"/>
      <point x="462" y="9"/>
      <point x="465" y="22" type="curve" smooth="yes"/>
      <point x="566" y="498" type="line" smooth="yes"/>
      <point x="569" y="511"/>
      <point x="562" y="520"/>
      <point x="549" y="520" type="curve" smooth="yes"/>
      <point x="532" y="520" type="line" smooth="yes"/>
      <point x="519" y="520"/>
      <point x="508" y="511"/>
      <point x="505" y="498" type="curve" smooth="yes"/>
      <point x="462" y="295" type="line"/>
      <point x="150" y="295" type="line"/>
      <point x="193" y="498" type="line" smooth="yes"/>
      <point x="196" y="511"/>
      <point x="189" y="520"/>
      <point x="176" y="520" type="curve" smooth="yes"/>
      <point x="159" y="520" type="line" smooth="yes"/>
      <point x="146" y="520"/>
      <point x="135" y="511"/>
      <point x="132" y="498" type="curve" smooth="yes"/>
      <point x="31" y="22" type="line" smooth="yes"/>
      <point x="28" y="9"/>
      <point x="36" y="0"/>
    </contour>
    <contour>
      <point x="465" y="-130" type="curve" smooth="yes"/>
      <point x="482" y="-130" type="line" smooth="yes"/>
      <point x="495" y="-130"/>
      <point x="506" y="-121"/>
      <point x="509" y="-108" type="curve" smooth="yes"/>
      <point x="539" y="36" type="line" smooth="yes"/>
      <point x="542" y="49"/>
      <point x="535" y="58"/>
      <point x="522" y="58" type="curve" smooth="yes"/>
      <point x="412" y="58" type="line"/>
      <point x="431" y="0" type="line"/>
      <point x="471" y="0" type="line"/>
      <point x="448" y="-108" type="line" smooth="yes"/>
      <point x="445" y="-121"/>
      <point x="452" y="-130"/>
    </contour>
  </outline>
</glyph>
<glyph name="Chedescender-cy" format="2">
  <advance width="665"/>
  <unicode hex="04B6"/>
  <outline>
    <contour>
      <point x="449" y="0" type="curve" smooth="yes"/>
      <point x="467" y="0" type="line" smooth="yes"/>
      <point x="481" y="0"/>
      <point x="492" y="9"/>
      <point x="495" y="22" type="curve" smooth="yes"/>
      <point x="635" y="678" type="line" smooth="yes"/>
      <point x="637" y="691"/>
      <point x="630" y="700"/>
      <point x="616" y="700" type="curve" smooth="yes"/>
      <point x="598" y="700" type="line" smooth="yes"/>
      <point x="585" y="700"/>
      <point x="574" y="691"/>
      <point x="572" y="678" type="curve" smooth="yes"/>
      <point x="517" y="422" type="line" smooth="yes"/>
      <point x="496" y="321"/>
      <point x="380" y="302"/>
      <point x="312" y="302" type="curve" smooth="yes"/>
      <point x="184" y="302"/>
      <point x="147" y="349"/>
      <point x="168" y="449" type="curve" smooth="yes"/>
      <point x="217" y="678" type="line" smooth="yes"/>
      <point x="219" y="691"/>
      <point x="212" y="700"/>
      <point x="198" y="700" type="curve" smooth="yes"/>
      <point x="180" y="700" type="line" smooth="yes"/>
      <point x="167" y="700"/>
      <point x="156" y="691"/>
      <point x="154" y="678" type="curve" smooth="yes"/>
      <point x="104" y="444" type="line" smooth="yes"/>
      <point x="76" y="314"/>
      <point x="133" y="242"/>
      <point x="291" y="242" type="curve" smooth="yes"/>
      <point x="356" y="242"/>
      <point x="452" y="258"/>
      <point x="491" y="297" type="curve"/>
      <point x="432" y="22" type="line" smooth="yes"/>
      <point x="429" y="9"/>
      <point x="436" y="0"/>
    </contour>
    <contour>
      <point x="494" y="-140" type="curve" smooth="yes"/>
      <point x="512" y="-140" type="line" smooth="yes"/>
      <point x="526" y="-140"/>
      <point x="537" y="-131"/>
      <point x="539" y="-118" type="curve" smooth="yes"/>
      <point x="573" y="38" type="line" smooth="yes"/>
      <point x="575" y="51"/>
      <point x="568" y="60"/>
      <point x="554" y="60" type="curve" smooth="yes"/>
      <point x="441" y="60" type="line"/>
      <point x="458" y="0" type="line"/>
      <point x="501" y="0" type="line"/>
      <point x="476" y="-118" type="line" smooth="yes"/>
      <point x="474" y="-131"/>
      <point x="481" y="-140"/>
    </contour>
  </outline>
</glyph>
<glyph name="chedescender-cy" format="2">
  <advance width="551"/>
  <unicode hex="04B7"/>
  <outline>
    <contour>
      <point x="404" y="-130" type="curve" smooth="yes"/>
      <point x="421" y="-130" type="line" smooth="yes"/>
      <point x="434" y="-130"/>
      <point x="445" y="-121"/>
      <point x="448" y="-108" type="curve" smooth="yes"/>
      <point x="478" y="36" type="line" smooth="yes"/>
      <point x="481" y="49"/>
      <point x="474" y="58"/>
      <point x="461" y="58" type="curve" smooth="yes"/>
      <point x="351" y="58" type="line"/>
      <point x="370" y="0" type="line"/>
      <point x="410" y="0" type="line"/>
      <point x="387" y="-108" type="line" smooth="yes"/>
      <point x="384" y="-121"/>
      <point x="391" y="-130"/>
    </contour>
    <component base="che-cy"/>
  </outline>
</glyph>
<glyph name="Aie-cy" format="2">
  <advance width="943"/>
  <unicode hex="04D4"/>
  <outline>
    <contour>
      <point x="-13" y="0" type="curve" smooth="yes"/>
      <point x="10" y="0" type="line" smooth="yes"/>
      <point x="19" y="0"/>
      <point x="28" y="6"/>
      <point x="35" y="15" type="curve"/>
      <point x="35" y="15"/>
      <point x="36" y="17"/>
      <point x="159" y="175" type="curve"/>
      <point x="421" y="175" type="line"/>
      <point x="388" y="22" type="line" smooth="yes"/>
      <point x="386" y="9"/>
      <point x="393" y="0"/>
      <point x="406" y="0" type="curve" smooth="yes"/>
      <point x="804" y="0" type="line" smooth="yes"/>
      <point x="818" y="0"/>
      <point x="829" y="9"/>
      <point x="831" y="22" type="curve" smooth="yes"/>
      <point x="834" y="37" type="line" smooth="yes"/>
      <point x="837" y="51"/>
      <point x="830" y="60"/>
      <point x="816" y="60" type="curve" smooth="yes"/>
      <point x="459" y="60" type="line"/>
      <point x="516" y="325" type="line"/>
      <point x="843" y="325" type="line" smooth="yes"/>
      <point x="857" y="325"/>
      <point x="868" y="334"/>
      <point x="870" y="347" type="curve" smooth="yes"/>
      <point x="874" y="362" type="line" smooth="yes"/>
      <point x="877" y="376"/>
      <point x="869" y="385"/>
      <point x="855" y="385" type="curve" smooth="yes"/>
      <point x="528" y="385" type="line"/>
      <point x="583" y="640" type="line"/>
      <point x="932" y="640" type="line" smooth="yes"/>
      <point x="946" y="640"/>
      <point x="957" y="649"/>
      <point x="959" y="662" type="curve" smooth="yes"/>
      <point x="963" y="677" type="line" smooth="yes"/>
      <point x="965" y="691"/>
      <point x="958" y="700"/>
      <point x="944" y="700" type="curve" smooth="yes"/>
      <point x="511" y="700" type="line" smooth="yes"/>
      <point x="502" y="700"/>
      <point x="493" y="696"/>
      <point x="481" y="681" type="curve" smooth="yes"/>
      <point x="-11" y="49"/>
      <point x="-22" y="34"/>
      <point x="-22" y="34" type="curve"/>
      <point x="-25" y="30"/>
      <point x="-28" y="25"/>
      <point x="-29" y="20" type="curve" smooth="yes"/>
      <point x="-31" y="9"/>
      <point x="-24" y="0"/>
    </contour>
    <contour>
      <point x="206" y="235" type="line"/>
      <point x="517" y="633" type="line"/>
      <point x="518" y="633" type="line"/>
      <point x="434" y="235" type="line"/>
    </contour>
  </outline>
</glyph>
<glyph name="aie-cy" format="2">
  <advance width="881"/>
  <unicode hex="04D5"/>
  <outline>
    <contour>
      <point x="172" y="-10" type="curve" smooth="yes"/>
      <point x="270" y="-10"/>
      <point x="345" y="26"/>
      <point x="400" y="100" type="curve"/>
      <point x="417" y="36"/>
      <point x="466" y="-10"/>
      <point x="564" y="-10" type="curve" smooth="yes"/>
      <point x="699" y="-10"/>
      <point x="785" y="81"/>
      <point x="791" y="111" type="curve" smooth="yes"/>
      <point x="794" y="123"/>
      <point x="787" y="131"/>
      <point x="775" y="131" type="curve"/>
      <point x="763" y="131" type="line"/>
      <point x="748" y="131"/>
      <point x="743" y="129"/>
      <point x="729" y="113" type="curve" smooth="yes"/>
      <point x="687" y="67"/>
      <point x="628" y="48"/>
      <point x="576" y="48" type="curve" smooth="yes"/>
      <point x="507" y="48"/>
      <point x="437" y="95"/>
      <point x="461" y="225" type="curve"/>
      <point x="463" y="235" type="line"/>
      <point x="809" y="235" type="line"/>
      <point x="822" y="235"/>
      <point x="834" y="244"/>
      <point x="836" y="257" type="curve"/>
      <point x="840" y="272" type="line"/>
      <point x="861" y="373"/>
      <point x="865" y="530"/>
      <point x="679" y="530" type="curve" smooth="yes"/>
      <point x="595" y="530"/>
      <point x="532" y="494"/>
      <point x="487" y="442" type="curve"/>
      <point x="473" y="491"/>
      <point x="428" y="530"/>
      <point x="327" y="530" type="curve" smooth="yes"/>
      <point x="194" y="530"/>
      <point x="123" y="442"/>
      <point x="115" y="405" type="curve" smooth="yes"/>
      <point x="112" y="393"/>
      <point x="120" y="383"/>
      <point x="132" y="383" type="curve"/>
      <point x="146" y="383" type="line"/>
      <point x="158" y="383"/>
      <point x="166" y="388"/>
      <point x="175" y="404" type="curve" smooth="yes"/>
      <point x="193" y="437"/>
      <point x="241" y="472"/>
      <point x="315" y="472" type="curve" smooth="yes"/>
      <point x="409" y="472"/>
      <point x="442" y="429"/>
      <point x="427" y="358" type="curve"/>
      <point x="420" y="326" type="line"/>
      <point x="257" y="304" type="line"/>
      <point x="137" y="288"/>
      <point x="43" y="229"/>
      <point x="24" y="139" type="curve" smooth="yes"/>
      <point x="6" y="55"/>
      <point x="66" y="-10"/>
    </contour>
    <contour>
      <point x="194" y="48" type="curve" smooth="yes"/>
      <point x="132" y="48"/>
      <point x="72" y="78"/>
      <point x="86" y="144" type="curve" smooth="yes"/>
      <point x="98" y="198"/>
      <point x="163" y="235"/>
      <point x="275" y="250" type="curve"/>
      <point x="408" y="268" type="line"/>
      <point x="400" y="234" type="line"/>
      <point x="374" y="108"/>
      <point x="286" y="48"/>
    </contour>
    <contour>
      <point x="475" y="291" type="line"/>
      <point x="475" y="295" type="line"/>
      <point x="505" y="416"/>
      <point x="591" y="472"/>
      <point x="667" y="472" type="curve" smooth="yes"/>
      <point x="772" y="472"/>
      <point x="805" y="396"/>
      <point x="783" y="295" type="curve"/>
      <point x="783" y="291" type="line"/>
    </contour>
  </outline>
</glyph>
<glyph name="sheva-hb" format="2">
  <unicode hex="05B0"/>
  <anchor x="-48" y="0" name="_bottom"/>
  <outline>
    <contour>
      <point x="-91" y="-146" type="curve" smooth="yes"/>
      <point x="-68" y="-146" type="line" smooth="yes"/>
      <point x="-55" y="-146"/>
      <point x="-44" y="-137"/>
      <point x="-41" y="-124" type="curve" smooth="yes"/>
      <point x="-36" y="-101" type="line" smooth="yes"/>
      <point x="-33" y="-88"/>
      <point x="-41" y="-79"/>
      <point x="-54" y="-79" type="curve" smooth="yes"/>
      <point x="-77" y="-79" type="line" smooth="yes"/>
      <point x="-90" y="-79"/>
      <point x="-100" y="-88"/>
      <point x="-103" y="-101" type="curve" smooth="yes"/>
      <point x="-108" y="-124" type="line" smooth="yes"/>
      <point x="-111" y="-137"/>
      <point x="-104" y="-146"/>
    </contour>
    <contour>
      <point x="-112" y="-245" type="curve" smooth="yes"/>
      <point x="-89" y="-245" type="line" smooth="yes"/>
      <point x="-76" y="-245"/>
      <point x="-65" y="-236"/>
      <point x="-62" y="-223" type="curve" smooth="yes"/>
      <point x="-57" y="-200" type="line" smooth="yes"/>
      <point x="-55" y="-187"/>
      <point x="-62" y="-178"/>
      <point x="-75" y="-178" type="curve" smooth="yes"/>
      <point x="-98" y="-178" type="line" smooth="yes"/>
      <point x="-111" y="-178"/>
      <point x="-122" y="-187"/>
      <point x="-124" y="-200" type="curve" smooth="yes"/>
      <point x="-129" y="-223" type="line" smooth="yes"/>
      <point x="-132" y="-236"/>
      <point x="-125" y="-245"/>
    </contour>
  </outline>
</glyph>
<glyph name="patah-hb" format="2">
  <unicode hex="05B7"/>
  <anchor x="-48" y="-5" name="_bottom"/>
  <outline>
    <contour>
      <point x="-179" y="-131" type="curve" smooth="yes"/>
      <point x="29" y="-131" type="line" smooth="yes"/>
      <point x="42" y="-131"/>
      <point x="53" y="-122"/>
      <point x="56" y="-109" type="curve" smooth="yes"/>
      <point x="58" y="-101" type="line" smooth="yes"/>
      <point x="61" y="-88"/>
      <point x="53" y="-79"/>
      <point x="40" y="-79" type="curve" smooth="yes"/>
      <point x="-168" y="-79" type="line" smooth="yes"/>
      <point x="-181" y="-79"/>
      <point x="-191" y="-88"/>
      <point x="-194" y="-101" type="curve" smooth="yes"/>
      <point x="-196" y="-109" type="line" smooth="yes"/>
      <point x="-199" y="-122"/>
      <point x="-192" y="-131"/>
    </contour>
  </outline>
</glyph>
<glyph name="holam-hb" format="2">
  <unicode hex="05B9"/>
  <anchor x="90" y="415" name="_topleft"/>
  <outline>
    <contour>
      <point x="54" y="533" type="curve" smooth="yes"/>
      <point x="77" y="533" type="line" smooth="yes"/>
      <point x="90" y="533"/>
      <point x="100" y="542"/>
      <point x="103" y="555" type="curve" smooth="yes"/>
      <point x="108" y="578" type="line" smooth="yes"/>
      <point x="111" y="591"/>
      <point x="104" y="600"/>
      <point x="91" y="600" type="curve" smooth="yes"/>
      <point x="68" y="600" type="line" smooth="yes"/>
      <point x="55" y="600"/>
      <point x="44" y="591"/>
      <point x="41" y="578" type="curve" smooth="yes"/>
      <point x="36" y="555" type="line" smooth="yes"/>
      <point x="33" y="542"/>
      <point x="41" y="533"/>
    </contour>
  </outline>
</glyph>
<glyph name="uni05C7" format="2">
  <unicode hex="05C7"/>
  <outline>
    <contour>
      <point x="52.62365237281383" y="-79.0" name="inserted"/>
      <point x="60" y="-88"/>
      <point x="57" y="-101" type="curve" smooth="yes"/>
      <point x="55" y="-109" type="line" smooth="yes"/>
      <point x="52" y="-122"/>
      <point x="41.4" y="-131.0"/>
      <point x="28" y="-131" type="curve" smooth="yes"/>
      <point x="-51" y="-131" type="line"/>
      <point x="-71" y="-223" type="line"/>
      <point x="-74" y="-236"/>
      <point x="-84.6" y="-245.0"/>
      <point x="-98" y="-245" type="curve" smooth="yes"/>
      <point x="-105" y="-245" type="line" smooth="yes"/>
      <point x="-119.0" y="-245.0" name="inserted"/>
      <point x="-125" y="-237"/>
      <point x="-122" y="-223" type="curve" smooth="yes"/>
      <point x="-102" y="-131" type="line"/>
      <point x="-180" y="-131" type="line" smooth="yes"/>
      <point x="-193.39999999999998" y="-131.0" name="inserted"/>
      <point x="-200" y="-123"/>
      <point x="-197" y="-109" type="curve" smooth="yes"/>
      <point x="-195" y="-101" type="line" smooth="yes"/>
      <point x="-192" y="-88"/>
      <point x="-182.4" y="-79.0"/>
      <point x="-169" y="-79" type="curve" smooth="yes"/>
      <point x="39" y="-79" type="line" smooth="yes"/>
    </contour>
  </outline>
</glyph>
<glyph name="alef-hb" format="2">
  <advance width="568"/>
  <unicode hex="05D0"/>
  <guideline x="955" y="571" angle="0"/>
  <guideline x="1005"/>
  <guideline x="1433"/>
  <anchor x="238" y="0" name="bottom"/>
  <anchor x="-24" y="0" name="bottomleft"/>
  <anchor x="210" y="142" name="center"/>
  <anchor x="349" y="520" name="top"/>
  <anchor x="87" y="520" name="topleft"/>
  <outline>
    <contour>
      <point x="424" y="0" type="curve" smooth="yes"/>
      <point x="443" y="0" type="line" smooth="yes"/>
      <point x="454" y="0"/>
      <point x="465" y="9"/>
      <point x="467" y="20" type="curve" smooth="yes"/>
      <point x="469" y="25"/>
      <point x="468" y="31"/>
      <point x="464" y="40" type="curve"/>
      <point x="203" y="556" type="line"/>
      <point x="200" y="563"/>
      <point x="195" y="571"/>
      <point x="182" y="571" type="curve" smooth="yes"/>
      <point x="163" y="571" type="line" smooth="yes"/>
      <point x="152" y="571"/>
      <point x="141" y="562"/>
      <point x="138" y="551" type="curve" smooth="yes"/>
      <point x="137" y="546"/>
      <point x="138" y="540"/>
      <point x="142" y="531" type="curve" smooth="yes"/>
      <point x="402" y="15" type="line"/>
      <point x="407" y="8"/>
      <point x="411" y="0"/>
    </contour>
    <contour>
      <point x="29" y="0" type="curve" smooth="yes"/>
      <point x="46" y="0" type="line" smooth="yes"/>
      <point x="59" y="0"/>
      <point x="70" y="9"/>
      <point x="73" y="22" type="curve" smooth="yes"/>
      <point x="106" y="176" type="line" smooth="yes"/>
      <point x="120" y="242"/>
      <point x="149" y="316"/>
      <point x="243" y="367" type="curve"/>
      <point x="220" y="415" type="line"/>
      <point x="98" y="350"/>
      <point x="63" y="264"/>
      <point x="46" y="181" type="curve" smooth="yes"/>
      <point x="12" y="22" type="line" smooth="yes"/>
      <point x="9" y="9"/>
      <point x="16" y="0"/>
    </contour>
    <contour>
      <point x="350" y="178" type="line"/>
      <point x="498" y="244"/>
      <point x="528" y="313"/>
      <point x="546" y="400" type="curve" smooth="yes"/>
      <point x="578" y="549" type="line" smooth="yes"/>
      <point x="581" y="562"/>
      <point x="574" y="571"/>
      <point x="561" y="571" type="curve" smooth="yes"/>
      <point x="544" y="571" type="line" smooth="yes"/>
      <point x="531" y="571"/>
      <point x="520" y="562"/>
      <point x="517" y="549" type="curve" smooth="yes"/>
      <point x="486" y="405" type="line" smooth="yes"/>
      <point x="471" y="335"/>
      <point x="460" y="281"/>
      <point x="336" y="229" type="curve"/>
    </contour>
  </outline>
</glyph>
<glyph name="het-hb" format="2">
  <advance width="609"/>
  <unicode hex="05D7"/>
  <guideline x="300" y="571" angle="0"/>
  <guideline x="370"/>
  <guideline x="817"/>
  <anchor x="256" y="0" name="bottom"/>
  <anchor x="-29" y="0" name="bottomleft"/>
  <anchor x="311" y="260" name="center"/>
  <anchor x="367" y="520" name="top"/>
  <anchor x="82" y="520" name="topleft"/>
  <outline>
    <contour>
      <point x="57" y="0" type="curve" smooth="yes"/>
      <point x="74" y="0" type="line" smooth="yes"/>
      <point x="87" y="0"/>
      <point x="98" y="9"/>
      <point x="101" y="22" type="curve" smooth="yes"/>
      <point x="205" y="513" type="line"/>
      <point x="339" y="513" type="line" smooth="yes"/>
      <point x="474" y="513"/>
      <point x="515" y="442"/>
      <point x="490" y="322" type="curve" smooth="yes"/>
      <point x="426" y="22" type="line" smooth="yes"/>
      <point x="423" y="9"/>
      <point x="430" y="0"/>
      <point x="443" y="0" type="curve" smooth="yes"/>
      <point x="460" y="0" type="line" smooth="yes"/>
      <point x="473" y="0"/>
      <point x="484" y="9"/>
      <point x="487" y="22" type="curve" smooth="yes"/>
      <point x="552" y="327" type="line" smooth="yes"/>
      <point x="585" y="482"/>
      <point x="527" y="571"/>
      <point x="357" y="571" type="curve" smooth="yes"/>
      <point x="179" y="571" type="line" smooth="yes"/>
      <point x="166" y="571"/>
      <point x="155" y="562"/>
      <point x="152" y="549" type="curve"/>
      <point x="40" y="22" type="line" smooth="yes"/>
      <point x="37" y="9"/>
      <point x="44" y="0"/>
    </contour>
  </outline>
</glyph>
<glyph name="finalnun-hb" format="2">
  <advance width="229"/>
  <unicode hex="05DF"/>
  <anchor x="66" y="0" name="bottom"/>
  <anchor x="-29" y="0" name="bottomleft"/>
  <anchor x="121" y="260" name="center"/>
  <anchor x="177" y="520" name="top"/>
  <anchor x="82" y="520" name="topleft"/>
  <outline>
    <contour>
      <point x="31" y="-124" type="curve" smooth="yes"/>
      <point x="48" y="-124" type="line" smooth="yes"/>
      <point x="61" y="-124"/>
      <point x="72" y="-115"/>
      <point x="75" y="-102" type="curve"/>
      <point x="213" y="549" type="line" smooth="yes"/>
      <point x="216" y="562"/>
      <point x="209" y="571"/>
      <point x="196" y="571" type="curve" smooth="yes"/>
      <point x="179" y="571" type="line" smooth="yes"/>
      <point x="166" y="571"/>
      <point x="155" y="562"/>
      <point x="152" y="549" type="curve" smooth="yes"/>
      <point x="14" y="-102" type="line" smooth="yes"/>
      <point x="11" y="-115"/>
      <point x="18" y="-124"/>
    </contour>
  </outline>
</glyph>
<glyph name="samekh-hb" format="2">
  <advance width="633"/>
  <unicode hex="05E1"/>
  <guideline x="365"/>
  <guideline x="809"/>
  <guideline x="636" y="571" angle="0"/>
  <anchor x="267" y="0" name="bottom"/>
  <anchor x="-29" y="0" name="bottomleft"/>
  <anchor x="321" y="260" name="center"/>
  <anchor x="378" y="520" name="top"/>
  <anchor x="82" y="520" name="topleft"/>
  <outline>
    <contour>
      <point x="264" y="-10" type="curve" smooth="yes"/>
      <point x="444" y="-10"/>
      <point x="534" y="69"/>
      <point x="571" y="224" type="curve"/>
      <point x="576" y="244"/>
      <point x="592" y="317"/>
      <point x="595" y="337" type="curve" smooth="yes"/>
      <point x="622" y="492"/>
      <point x="578" y="571"/>
      <point x="408" y="571" type="curve"/>
      <point x="173" y="571" type="line" smooth="yes"/>
      <point x="160" y="571"/>
      <point x="149" y="562"/>
      <point x="146" y="549" type="curve" smooth="yes"/>
      <point x="80" y="239" type="line" smooth="yes"/>
      <point x="46" y="79"/>
      <point x="104" y="-10"/>
    </contour>
    <contour>
      <point x="276" y="48" type="curve" smooth="yes"/>
      <point x="156" y="48"/>
      <point x="116" y="119"/>
      <point x="141" y="239" type="curve" smooth="yes"/>
      <point x="199" y="513" type="line"/>
      <point x="390" y="513" type="line" smooth="yes"/>
      <point x="495" y="513"/>
      <point x="555" y="452"/>
      <point x="533" y="332" type="curve"/>
      <point x="530" y="312"/>
      <point x="516" y="249"/>
      <point x="511" y="229" type="curve"/>
      <point x="482" y="109"/>
      <point x="416" y="48"/>
    </contour>
  </outline>
</glyph>
<glyph name="finaltsadi-hb" format="2">
  <advance width="477"/>
  <unicode hex="05E5"/>
  <guideline x="300" y="571" angle="0"/>
  <guideline x="300" y="-124" angle="0"/>
  <guideline x="328"/>
  <guideline x="731"/>
  <anchor x="190" y="0" name="bottom"/>
  <anchor x="-29" y="0" name="bottomleft"/>
  <anchor x="245" y="260" name="center"/>
  <anchor x="301" y="520" name="top"/>
  <anchor x="82" y="520" name="topleft"/>
  <outline>
    <contour>
      <point x="241" y="-124" type="curve" smooth="yes"/>
      <point x="262" y="-124" type="line" smooth="yes"/>
      <point x="273" y="-124"/>
      <point x="284" y="-115"/>
      <point x="286" y="-104" type="curve" smooth="yes"/>
      <point x="287" y="-99"/>
      <point x="286" y="-94"/>
      <point x="284" y="-84" type="curve" smooth="yes"/>
      <point x="230" y="206" type="line"/>
      <point x="365" y="224"/>
      <point x="452" y="309"/>
      <point x="481" y="447" type="curve" smooth="yes"/>
      <point x="503" y="549" type="line" smooth="yes"/>
      <point x="506" y="562"/>
      <point x="499" y="571"/>
      <point x="486" y="571" type="curve" smooth="yes"/>
      <point x="469" y="571" type="line" smooth="yes"/>
      <point x="456" y="571"/>
      <point x="445" y="562"/>
      <point x="442" y="549" type="curve" smooth="yes"/>
      <point x="421" y="452" type="line" smooth="yes"/>
      <point x="398" y="341"/>
      <point x="335" y="272"/>
      <point x="219" y="262" type="curve"/>
      <point x="166" y="547" type="line" smooth="yes"/>
      <point x="163" y="564"/>
      <point x="158" y="571"/>
      <point x="145" y="571" type="curve" smooth="yes"/>
      <point x="127" y="571" type="line" smooth="yes"/>
      <point x="116" y="571"/>
      <point x="105" y="562"/>
      <point x="102" y="551" type="curve" smooth="yes"/>
      <point x="101" y="546"/>
      <point x="102" y="541"/>
      <point x="104" y="531" type="curve" smooth="yes"/>
      <point x="221" y="-109" type="line"/>
      <point x="223" y="-117"/>
      <point x="228" y="-124"/>
    </contour>
  </outline>
</glyph>
<glyph name="guilsinglleft" format="2">
  <advance width="354"/>
  <unicode hex="2039"/>
  <outline>
    <contour>
      <point x="247" y="92" type="curve" smooth="yes"/>
      <point x="259" y="92"/>
      <point x="268" y="100"/>
      <point x="271" y="112" type="curve" smooth="yes"/>
      <point x="275" y="129" type="line" smooth="yes"/>
      <point x="278" y="145"/>
      <point x="275" y="152"/>
      <point x="264" y="165" type="curve" smooth="yes"/>
      <point x="130" y="329" type="line"/>
      <point x="334" y="493" type="line"/>
      <point x="350" y="506"/>
      <point x="356" y="513"/>
      <point x="360" y="529" type="curve" smooth="yes"/>
      <point x="363" y="546" type="line" smooth="yes"/>
      <point x="366" y="558"/>
      <point x="360" y="566"/>
      <point x="348" y="566" type="curve" smooth="yes"/>
      <point x="340" y="566"/>
      <point x="330" y="561"/>
      <point x="321" y="554" type="curve" smooth="yes"/>
      <point x="94" y="372" type="line" smooth="yes"/>
      <point x="79" y="359"/>
      <point x="73" y="348"/>
      <point x="70" y="337" type="curve"/>
      <point x="66" y="321" type="line"/>
      <point x="65" y="310"/>
      <point x="66" y="299"/>
      <point x="76" y="286" type="curve" smooth="yes"/>
      <point x="225" y="104" type="line" smooth="yes"/>
      <point x="232" y="97"/>
      <point x="239" y="92"/>
    </contour>
  </outline>
</glyph>
<glyph name="fourinferior" format="2">
  <advance width="330"/>
  <unicode hex="2084"/>
  <guideline x="-150" y="180" angle="0"/>
  <guideline x="-150" y="-170" angle="0"/>
  <guideline x="154"/>
  <guideline x="-129"/>
  <outline>
    <contour>
      <point x="128" y="-170" type="curve" smooth="yes"/>
      <point x="142" y="-170" type="line" smooth="yes"/>
      <point x="155" y="-170"/>
      <point x="166" y="-161"/>
      <point x="169" y="-148" type="curve" smooth="yes"/>
      <point x="180" y="-95" type="line"/>
      <point x="215" y="-95" type="line" smooth="yes"/>
      <point x="228" y="-95"/>
      <point x="239" y="-86"/>
      <point x="242" y="-73" type="curve" smooth="yes"/>
      <point x="244" y="-61" type="line" smooth="yes"/>
      <point x="247" y="-48"/>
      <point x="240" y="-39"/>
      <point x="227" y="-39" type="curve" smooth="yes"/>
      <point x="192" y="-39" type="line"/>
      <point x="234" y="158" type="line" smooth="yes"/>
      <point x="237" y="171"/>
      <point x="229" y="180"/>
      <point x="216" y="180" type="curve" smooth="yes"/>
      <point x="190" y="180" type="line" smooth="yes"/>
      <point x="181" y="180"/>
      <point x="170" y="176"/>
      <point x="157" y="162" type="curve" smooth="yes"/>
      <point x="-21" y="-30" type="line" smooth="yes"/>
      <point x="-37" y="-46"/>
      <point x="-39" y="-57"/>
      <point x="-40" y="-60" type="curve" smooth="yes"/>
      <point x="-42" y="-73" type="line" smooth="yes"/>
      <point x="-45" y="-86"/>
      <point x="-38" y="-95"/>
      <point x="-25" y="-95" type="curve" smooth="yes"/>
      <point x="122" y="-95" type="line"/>
      <point x="111" y="-148" type="line" smooth="yes"/>
      <point x="108" y="-161"/>
      <point x="115" y="-170"/>
    </contour>
    <contour>
      <point x="40" y="-39" type="line"/>
      <point x="163" y="96" type="line"/>
      <point x="134" y="-39" type="line"/>
    </contour>
  </outline>
</glyph>
<glyph name="seveninferior" format="2">
  <advance width="284"/>
  <unicode hex="2087"/>
  <guideline x="-150" y="180" angle="0"/>
  <guideline x="-150" y="-170" angle="0"/>
  <guideline x="-130"/>
  <guideline x="110"/>
  <outline>
    <contour>
      <point x="17" y="-170" type="curve" smooth="yes"/>
      <point x="33" y="-170" type="line" smooth="yes"/>
      <point x="47" y="-170"/>
      <point x="57" y="-158"/>
      <point x="64" y="-146" type="curve" smooth="yes"/>
      <point x="229" y="115" type="line" smooth="yes"/>
      <point x="235" y="126"/>
      <point x="241" y="136"/>
      <point x="243" y="146" type="curve" smooth="yes"/>
      <point x="246" y="158" type="line" smooth="yes"/>
      <point x="249" y="171"/>
      <point x="241" y="180"/>
      <point x="228" y="180" type="curve" smooth="yes"/>
      <point x="32" y="180" type="line" smooth="yes"/>
      <point x="19" y="180"/>
      <point x="9" y="171"/>
      <point x="6" y="158" type="curve" smooth="yes"/>
      <point x="3" y="146" type="line" smooth="yes"/>
      <point x="0" y="133"/>
      <point x="8" y="124"/>
      <point x="21" y="124" type="curve" smooth="yes"/>
      <point x="172" y="124" type="line"/>
      <point x="9" y="-134" type="line" smooth="yes"/>
      <point x="6" y="-138"/>
      <point x="2" y="-146"/>
      <point x="2" y="-149" type="curve" smooth="yes"/>
      <point x="-1" y="-161"/>
      <point x="4" y="-170"/>
    </contour>
  </outline>
</glyph>
<glyph name="eightinferior" format="2">
  <advance width="343"/>
  <unicode hex="2088"/>
  <guideline x="-150" y="710" angle="0"/>
  <guideline x="-150" y="88" angle="0"/>
  <guideline x="-150" y="180" angle="0"/>
  <guideline x="-150" y="-170" angle="0"/>
  <guideline x="-120"/>
  <guideline x="158"/>
  <outline>
    <contour>
      <point x="85" y="-175" type="curve" smooth="yes"/>
      <point x="164" y="-175"/>
      <point x="229" y="-129"/>
      <point x="242" y="-67" type="curve" smooth="yes"/>
      <point x="249" y="-32"/>
      <point x="242" y="-6"/>
      <point x="215" y="13" type="curve"/>
      <point x="239" y="25"/>
      <point x="259" y="51"/>
      <point x="266" y="84" type="curve" smooth="yes"/>
      <point x="277" y="137"/>
      <point x="243" y="185"/>
      <point x="162" y="185" type="curve" smooth="yes"/>
      <point x="80" y="185"/>
      <point x="27" y="137"/>
      <point x="16" y="84" type="curve" smooth="yes"/>
      <point x="9" y="51"/>
      <point x="20" y="24"/>
      <point x="39" y="13" type="curve"/>
      <point x="3" y="-8"/>
      <point x="-19" y="-33"/>
      <point x="-26" y="-67" type="curve" smooth="yes"/>
      <point x="-39" y="-130"/>
      <point x="5" y="-175"/>
    </contour>
    <contour>
      <point x="97" y="-119" type="curve" smooth="yes"/>
      <point x="62" y="-119"/>
      <point x="25" y="-102"/>
      <point x="32" y="-67" type="curve" smooth="yes"/>
      <point x="39" y="-32"/>
      <point x="81" y="-16"/>
      <point x="119" y="-16" type="curve" smooth="yes"/>
      <point x="156" y="-16"/>
      <point x="192" y="-31"/>
      <point x="184" y="-67" type="curve" smooth="yes"/>
      <point x="176" y="-103"/>
      <point x="131" y="-119"/>
    </contour>
    <contour>
      <point x="130" y="38" type="curve" smooth="yes"/>
      <point x="92" y="38"/>
      <point x="67" y="52"/>
      <point x="74" y="84" type="curve" smooth="yes"/>
      <point x="80" y="114"/>
      <point x="114" y="129"/>
      <point x="150" y="129" type="curve" smooth="yes"/>
      <point x="186" y="129"/>
      <point x="215" y="115"/>
      <point x="208" y="84" type="curve" smooth="yes"/>
      <point x="201" y="53"/>
      <point x="167" y="38"/>
    </contour>
  </outline>
</glyph>
<glyph name="tugrik" format="2">
  <advance width="550"/>
  <unicode hex="20AE"/>
  <outline>
    <contour>
      <point x="202" y="0" type="curve" smooth="yes"/>
      <point x="220" y="0" type="line" smooth="yes"/>
      <point x="234" y="0"/>
      <point x="245" y="9"/>
      <point x="247" y="22" type="curve" smooth="yes"/>
      <point x="379" y="640" type="line"/>
      <point x="576" y="640" type="line" smooth="yes"/>
      <point x="590" y="640"/>
      <point x="601" y="649"/>
      <point x="603" y="662" type="curve" smooth="yes"/>
      <point x="607" y="677" type="line" smooth="yes"/>
      <point x="609" y="691"/>
      <point x="602" y="700"/>
      <point x="588" y="700" type="curve" smooth="yes"/>
      <point x="130" y="700" type="line" smooth="yes"/>
      <point x="117" y="700"/>
      <point x="106" y="691"/>
      <point x="104" y="677" type="curve" smooth="yes"/>
      <point x="100" y="662" type="line" smooth="yes"/>
      <point x="98" y="649"/>
      <point x="105" y="640"/>
      <point x="118" y="640" type="curve" smooth="yes"/>
      <point x="316" y="640" type="line"/>
      <point x="184" y="22" type="line" smooth="yes"/>
      <point x="182" y="9"/>
      <point x="189" y="0"/>
    </contour>
    <contour>
      <point x="104" y="346" type="curve" smooth="yes"/>
      <point x="496" y="426" type="line" smooth="yes"/>
      <point x="510" y="429"/>
      <point x="520" y="435"/>
      <point x="523" y="448" type="curve" smooth="yes"/>
      <point x="526" y="462" type="line" smooth="yes"/>
      <point x="529" y="475"/>
      <point x="522" y="487"/>
      <point x="508" y="484" type="curve" smooth="yes"/>
      <point x="116" y="404" type="line" smooth="yes"/>
      <point x="103" y="401"/>
      <point x="93" y="395"/>
      <point x="90" y="382" type="curve" smooth="yes"/>
      <point x="87" y="368" type="line" smooth="yes"/>
      <point x="84" y="355"/>
      <point x="91" y="343"/>
    </contour>
    <contour>
      <point x="79" y="228" type="curve" smooth="yes"/>
      <point x="471" y="308" type="line" smooth="yes"/>
      <point x="485" y="311"/>
      <point x="495" y="317"/>
      <point x="498" y="330" type="curve" smooth="yes"/>
      <point x="501" y="344" type="line" smooth="yes"/>
      <point x="503" y="357"/>
      <point x="497" y="369"/>
      <point x="483" y="366" type="curve" smooth="yes"/>
      <point x="91" y="286" type="line" smooth="yes"/>
      <point x="78" y="283"/>
      <point x="67" y="277"/>
      <point x="65" y="264" type="curve" smooth="yes"/>
      <point x="62" y="250" type="line" smooth="yes"/>
      <point x="59" y="237"/>
      <point x="65" y="225"/>
    </contour>
  </outline>
</glyph>
<glyph name="tenge" format="2">
  <advance width="550"/>
  <unicode hex="20B8"/>
  <outline>
    <contour>
      <point x="202" y="0" type="curve" smooth="yes"/>
      <point x="220" y="0" type="line" smooth="yes"/>
      <point x="234" y="0"/>
      <point x="245" y="9"/>
      <point x="247" y="22" type="curve" smooth="yes"/>
      <point x="353" y="520" type="line"/>
      <point x="550" y="520" type="line" smooth="yes"/>
      <point x="564" y="520"/>
      <point x="575" y="529"/>
      <point x="578" y="542" type="curve" smooth="yes"/>
      <point x="581" y="557" type="line" smooth="yes"/>
      <point x="584" y="571"/>
      <point x="577" y="580"/>
      <point x="563" y="580" type="curve" smooth="yes"/>
      <point x="105" y="580" type="line" smooth="yes"/>
      <point x="92" y="580"/>
      <point x="81" y="571"/>
      <point x="78" y="557" type="curve" smooth="yes"/>
      <point x="75" y="542" type="line" smooth="yes"/>
      <point x="72" y="529"/>
      <point x="79" y="520"/>
      <point x="92" y="520" type="curve" smooth="yes"/>
      <point x="290" y="520" type="line"/>
      <point x="184" y="22" type="line" smooth="yes"/>
      <point x="182" y="9"/>
      <point x="189" y="0"/>
    </contour>
    <contour>
      <point x="118" y="640" type="curve" smooth="yes"/>
      <point x="576" y="640" type="line" smooth="yes"/>
      <point x="590" y="640"/>
      <point x="601" y="649"/>
      <point x="603" y="662" type="curve" smooth="yes"/>
      <point x="607" y="677" type="line" smooth="yes"/>
      <point x="609" y="691"/>
      <point x="602" y="700"/>
      <point x="588" y="700" type="curve" smooth="yes"/>
      <point x="130" y="700" type="line" smooth="yes"/>
      <point x="117" y="700"/>
      <point x="106" y="691"/>
      <point x="104" y="677" type="curve" smooth="yes"/>
      <point x="100" y="662" type="line" smooth="yes"/>
      <point x="98" y="649"/>
      <point x="105" y="640"/>
    </contour>
  </outline>
</glyph>
<glyph name="estimated" format="2">
  <advance width="605"/>
  <unicode hex="212E"/>
  <guideline x="148"/>
  <guideline x="391"/>
  <outline>
    <contour>
      <point x="254" y="-10" type="curve" smooth="yes"/>
      <point x="404" y="-10"/>
      <point x="496" y="73"/>
      <point x="510" y="128" type="curve" smooth="yes"/>
      <point x="514" y="140"/>
      <point x="506" y="148"/>
      <point x="494" y="148" type="curve" smooth="yes"/>
      <point x="482" y="148" type="line" smooth="yes"/>
      <point x="468" y="148"/>
      <point x="458" y="146"/>
      <point x="449" y="132" type="curve" smooth="yes"/>
      <point x="421" y="87"/>
      <point x="366" y="48"/>
      <point x="266" y="48" type="curve" smooth="yes"/>
      <point x="164" y="48"/>
      <point x="106" y="121"/>
      <point x="133" y="271" type="curve" smooth="yes"/>
      <point x="134" y="278" type="line"/>
      <point x="536" y="278" type="line" smooth="yes"/>
      <point x="549" y="278"/>
      <point x="561" y="287"/>
      <point x="564" y="300" type="curve" smooth="yes"/>
      <point x="569" y="325" type="line" smooth="yes"/>
      <point x="606" y="501"/>
      <point x="526" y="610"/>
      <point x="386" y="610" type="curve" smooth="yes"/>
      <point x="246" y="610"/>
      <point x="130" y="501"/>
      <point x="87" y="339" type="curve" smooth="yes"/>
      <point x="82" y="319"/>
      <point x="75" y="284"/>
      <point x="71" y="264" type="curve" smooth="yes"/>
      <point x="44" y="99"/>
      <point x="114" y="-10"/>
    </contour>
    <contour>
      <point x="146" y="334" type="line"/>
      <point x="147" y="339" type="line" smooth="yes"/>
      <point x="179" y="467"/>
      <point x="264" y="552"/>
      <point x="374" y="552" type="curve" smooth="yes"/>
      <point x="484" y="552"/>
      <point x="537" y="467"/>
      <point x="511" y="339" type="curve" smooth="yes"/>
      <point x="510" y="334" type="line"/>
    </contour>
  </outline>
</glyph>
<glyph name="braceright.case" format="2">
  <advance width="362"/>
  <outline>
    <contour>
      <point x="192" y="819" type="curve" smooth="yes"/>
      <point x="187" y="819" type="line" smooth="yes"/>
      <point x="174" y="819"/>
      <point x="163" y="810"/>
      <point x="161" y="797" type="curve" smooth="yes"/>
      <point x="158" y="783" type="line" smooth="yes"/>
      <point x="155" y="770"/>
      <point x="162" y="761"/>
      <point x="175" y="761" type="curve" smooth="yes"/>
      <point x="180" y="761" type="line" smooth="yes"/>
      <point x="283" y="760"/>
      <point x="271" y="687"/>
      <point x="233" y="508" type="curve" smooth="yes"/>
      <point x="217" y="430"/>
      <point x="229" y="382"/>
      <point x="275" y="351" type="curve"/>
      <point x="216" y="320"/>
      <point x="183" y="272"/>
      <point x="166" y="194" type="curve" smooth="yes"/>
      <point x="128" y="15"/>
      <point x="109" y="-57"/>
      <point x="6" y="-58" type="curve" smooth="yes"/>
      <point x="1" y="-58" type="line" smooth="yes"/>
      <point x="-12" y="-58"/>
      <point x="-23" y="-67"/>
      <point x="-26" y="-80" type="curve" smooth="yes"/>
      <point x="-29" y="-94" type="line" smooth="yes"/>
      <point x="-32" y="-107"/>
      <point x="-24" y="-116"/>
      <point x="-11" y="-116" type="curve" smooth="yes"/>
      <point x="-6" y="-116" type="line" smooth="yes"/>
      <point x="151" y="-116"/>
      <point x="184" y="-10"/>
      <point x="223" y="173" type="curve" smooth="yes"/>
      <point x="239" y="248"/>
      <point x="263" y="278"/>
      <point x="306" y="304" type="curve"/>
      <point x="313" y="308" type="line"/>
      <point x="333" y="320"/>
      <point x="341" y="329"/>
      <point x="345" y="345" type="curve" smooth="yes"/>
      <point x="347" y="357" type="line" smooth="yes"/>
      <point x="350" y="373"/>
      <point x="346" y="382"/>
      <point x="331" y="394" type="curve"/>
      <point x="327" y="397" type="line"/>
      <point x="295" y="423"/>
      <point x="282" y="453"/>
      <point x="299" y="529" type="curve" smooth="yes"/>
      <point x="338" y="712"/>
      <point x="349" y="819"/>
    </contour>
  </outline>
</glyph>
<glyph name="four.otlf" format="2">
  <advance width="600"/>
  <outline>
    <contour>
      <point x="360" y="0" type="curve" smooth="yes"/>
      <point x="379" y="0" type="line" smooth="yes"/>
      <point x="392" y="0"/>
      <point x="403" y="9"/>
      <point x="406" y="22" type="curve" smooth="yes"/>
      <point x="439" y="180" type="line"/>
      <point x="530" y="180" type="line" smooth="yes"/>
      <point x="543" y="180"/>
      <point x="554" y="189"/>
      <point x="557" y="202" type="curve" smooth="yes"/>
      <point x="561" y="218" type="line" smooth="yes"/>
      <point x="563" y="231"/>
      <point x="556" y="240"/>
      <point x="543" y="240" type="curve" smooth="yes"/>
      <point x="452" y="240" type="line"/>
      <point x="545" y="678" type="line" smooth="yes"/>
      <point x="548" y="691"/>
      <point x="541" y="700"/>
      <point x="528" y="700" type="curve" smooth="yes"/>
      <point x="487" y="700" type="line" smooth="yes"/>
      <point x="471" y="700"/>
      <point x="456" y="693"/>
      <point x="446" y="683" type="curve" smooth="yes"/>
      <point x="50" y="248" type="line" smooth="yes"/>
      <point x="37" y="234"/>
      <point x="33" y="220"/>
      <point x="33" y="218" type="curve" smooth="yes"/>
      <point x="29" y="202" type="line"/>
      <point x="26" y="189"/>
      <point x="33" y="180"/>
      <point x="46" y="180" type="curve" smooth="yes"/>
      <point x="376" y="180" type="line"/>
      <point x="343" y="22" type="line" smooth="yes"/>
      <point x="340" y="9"/>
      <point x="347" y="0"/>
    </contour>
    <contour>
      <point x="116" y="240" type="line"/>
      <point x="472" y="629" type="line"/>
      <point x="389" y="240" type="line"/>
    </contour>
  </outline>
</glyph>
<glyph name="hryvnia.BRACKET.125" format="2">
  <advance width="615"/>
  <outline>
    <contour>
      <point x="244" y="-10" type="curve" smooth="yes"/>
      <point x="387" y="-10"/>
      <point x="489" y="79"/>
      <point x="509" y="170" type="curve" smooth="yes"/>
      <point x="511" y="181"/>
      <point x="504" y="190"/>
      <point x="492" y="190" type="curve" smooth="yes"/>
      <point x="472" y="190" type="line" smooth="yes"/>
      <point x="459" y="190"/>
      <point x="450" y="181"/>
      <point x="446" y="170" type="curve" smooth="yes"/>
      <point x="424" y="114"/>
      <point x="367" y="50"/>
      <point x="257" y="50" type="curve" smooth="yes"/>
      <point x="148" y="50"/>
      <point x="100" y="101"/>
      <point x="117" y="181" type="curve" smooth="yes"/>
      <point x="134" y="260"/>
      <point x="193" y="298"/>
      <point x="339" y="341" type="curve" smooth="yes"/>
      <point x="463" y="379"/>
      <point x="554" y="430"/>
      <point x="575" y="530" type="curve" smooth="yes"/>
      <point x="597" y="631"/>
      <point x="542" y="710"/>
      <point x="413" y="710" type="curve" smooth="yes"/>
      <point x="255" y="710"/>
      <point x="156" y="612"/>
      <point x="139" y="535" type="curve" smooth="yes"/>
      <point x="137" y="525"/>
      <point x="142" y="515"/>
      <point x="156" y="515" type="curve" smooth="yes"/>
      <point x="176" y="515" type="line" smooth="yes"/>
      <point x="183" y="515"/>
      <point x="197" y="519"/>
      <point x="202" y="535" type="curve" smooth="yes"/>
      <point x="224" y="601"/>
      <point x="302" y="650"/>
      <point x="400" y="650" type="curve" smooth="yes"/>
      <point x="481" y="650"/>
      <point x="530" y="612"/>
      <point x="512" y="530" type="curve" smooth="yes"/>
      <point x="495" y="450"/>
      <point x="418" y="421"/>
      <point x="287" y="377" type="curve" smooth="yes"/>
      <point x="157" y="336"/>
      <point x="75" y="281"/>
      <point x="54" y="181" type="curve" smooth="yes"/>
      <point x="28" y="60"/>
      <point x="108" y="-10"/>
    </contour>
    <contour>
      <point x="73" y="317" type="curve" smooth="yes"/>
      <point x="238" y="317" type="line"/>
      <point x="346" y="367" type="line"/>
      <point x="84" y="367" type="line" smooth="yes"/>
      <point x="71" y="367"/>
      <point x="60" y="358"/>
      <point x="57" y="345" type="curve" smooth="yes"/>
      <point x="56" y="339" type="line" smooth="yes"/>
      <point x="53" y="326"/>
      <point x="60" y="317"/>
    </contour>
    <contour>
      <point x="231" y="307" type="line"/>
      <point x="546" y="307" type="line" smooth="yes"/>
      <point x="559" y="307"/>
      <point x="570" y="316"/>
      <point x="573" y="329" type="curve" smooth="yes"/>
      <point x="574" y="335" type="line" smooth="yes"/>
      <point x="577" y="348"/>
      <point x="569" y="357"/>
      <point x="556" y="357" type="curve" smooth="yes"/>
      <point x="338" y="357" type="line"/>
    </contour>
  </outline>
</glyph>
<glyph name="pedagesh-hb.black" format="2">
  <advance width="598"/>
  <guideline x="310" y="571" angle="0"/>
  <guideline x="310" y="336" angle="0"/>
  <anchor x="231" y="0" name="bottom"/>
  <anchor x="-19" y="0" name="bottomleft"/>
  <anchor x="316" y="260" name="center"/>
  <anchor x="342" y="520" name="top"/>
  <anchor x="92" y="520" name="topleft"/>
  <outline>
    <contour>
      <point x="305" y="226" type="curve" smooth="yes"/>
      <point x="318" y="226" type="line" smooth="yes"/>
      <point x="331" y="226"/>
      <point x="342" y="235"/>
      <point x="345" y="248" type="curve" smooth="yes"/>
      <point x="358" y="311" type="line" smooth="yes"/>
      <point x="361" y="324"/>
      <point x="354" y="333"/>
      <point x="341" y="333" type="curve" smooth="yes"/>
      <point x="328" y="333" type="line" smooth="yes"/>
      <point x="315" y="333"/>
      <point x="304" y="324"/>
      <point x="301" y="311" type="curve" smooth="yes"/>
      <point x="288" y="248" type="line" smooth="yes"/>
      <point x="285" y="235"/>
      <point x="292" y="226"/>
    </contour>
    <component base="pe-hb" xOffset="1"/>
  </outline>
</glyph>
<glyph name="six.otlf" format="2">
  <advance width="600"/>
  <outline>
    <contour>
      <point x="256" y="-10" type="curve" smooth="yes"/>
      <point x="416" y="-10"/>
      <point x="524" y="105"/>
      <point x="549" y="226" type="curve" smooth="yes"/>
      <point x="575" y="347"/>
      <point x="516" y="461"/>
      <point x="356" y="461" type="curve" smooth="yes"/>
      <point x="334" y="461"/>
      <point x="307" y="458"/>
      <point x="286" y="453" type="curve"/>
      <point x="482" y="665" type="line" smooth="yes"/>
      <point x="484" y="668"/>
      <point x="488" y="672"/>
      <point x="489" y="678" type="curve" smooth="yes"/>
      <point x="492" y="690"/>
      <point x="486" y="700"/>
      <point x="474" y="700" type="curve" smooth="yes"/>
      <point x="455" y="700" type="line" smooth="yes"/>
      <point x="437" y="700"/>
      <point x="427" y="687"/>
      <point x="420" y="680" type="curve"/>
      <point x="164" y="403" type="line" smooth="yes"/>
      <point x="134" y="370"/>
      <point x="80" y="304"/>
      <point x="63" y="226" type="curve" smooth="yes"/>
      <point x="38" y="105"/>
      <point x="96" y="-10"/>
    </contour>
    <contour>
      <point x="269" y="50" type="curve" smooth="yes"/>
      <point x="175" y="50"/>
      <point x="102" y="111"/>
      <point x="126" y="226" type="curve" smooth="yes"/>
      <point x="150" y="340"/>
      <point x="249" y="401"/>
      <point x="343" y="401" type="curve" smooth="yes"/>
      <point x="437" y="401"/>
      <point x="510" y="340"/>
      <point x="486" y="226" type="curve" smooth="yes"/>
      <point x="462" y="111"/>
      <point x="363" y="50"/>
    </contour>
  </outline>
</glyph>
<glyph name="three.otlf" format="2">
  <advance width="600"/>
  <outline>
    <contour>
      <point x="247" y="-10" type="curve" smooth="yes"/>
      <point x="384" y="-10"/>
      <point x="502" y="66"/>
      <point x="530" y="198" type="curve" smooth="yes"/>
      <point x="559" y="332"/>
      <point x="480" y="396"/>
      <point x="343" y="396" type="curve" smooth="yes"/>
      <point x="323" y="396" type="line"/>
      <point x="587" y="643" type="line" smooth="yes"/>
      <point x="592" y="648"/>
      <point x="597" y="654"/>
      <point x="599" y="662" type="curve" smooth="yes"/>
      <point x="602" y="677" type="line" smooth="yes"/>
      <point x="605" y="691"/>
      <point x="598" y="700"/>
      <point x="584" y="700" type="curve" smooth="yes"/>
      <point x="211" y="700" type="line" smooth="yes"/>
      <point x="198" y="700"/>
      <point x="187" y="691"/>
      <point x="184" y="677" type="curve" smooth="yes"/>
      <point x="181" y="662" type="line" smooth="yes"/>
      <point x="178" y="649"/>
      <point x="185" y="640"/>
      <point x="198" y="640" type="curve" smooth="yes"/>
      <point x="500" y="640" type="line"/>
      <point x="243" y="397" type="line"/>
      <point x="236" y="390"/>
      <point x="231" y="383"/>
      <point x="228" y="373" type="curve" smooth="yes"/>
      <point x="225" y="358" type="line" smooth="yes"/>
      <point x="223" y="345"/>
      <point x="230" y="336"/>
      <point x="243" y="336" type="curve" smooth="yes"/>
      <point x="331" y="336" type="line" smooth="yes"/>
      <point x="434" y="336"/>
      <point x="488" y="297"/>
      <point x="467" y="198" type="curve" smooth="yes"/>
      <point x="446" y="99"/>
      <point x="363" y="50"/>
      <point x="260" y="50" type="curve" smooth="yes"/>
      <point x="189" y="50"/>
      <point x="108" y="70"/>
      <point x="106" y="157" type="curve" smooth="yes"/>
      <point x="105" y="177"/>
      <point x="94" y="180"/>
      <point x="83" y="180" type="curve" smooth="yes"/>
      <point x="69" y="180" type="line" smooth="yes"/>
      <point x="57" y="180"/>
      <point x="47" y="173"/>
      <point x="44" y="161" type="curve" smooth="yes"/>
      <point x="29" y="74"/>
      <point x="97" y="-10"/>
    </contour>
  </outline>
</glyph>
